<?xml version="1.0" encoding="utf-8"?>
<!-- Generator: Adobe Illustrator 26.0.3, SVG Export Plug-In . SVG Version: 6.00 Build 0)  -->
<svg version="1.1" xmlns="http://www.w3.org/2000/svg" xmlns:xlink="http://www.w3.org/1999/xlink" x="0px" y="0px"
	 viewBox="0 0 1133.9 1133.9" style="enable-background:new 0 0 1133.9 1133.9;" xml:space="preserve">
<style type="text/css">
	.st0{fill:#D8EAF6;}
	.st1{fill:#FFFFFF;stroke:#FFFFFF;stroke-width:2.9567;stroke-miterlimit:10;}
	.st2{fill:none;}
	.st3{opacity:0.69;}
	.st4{fill:#007BC6;}
</style>
<g id="Layer_6">
	<rect class="st0" width="1133.9" height="1133.9"/>
</g>
<g id="wit_achtergrond">
</g>
<g id="tekst">
</g>
<g id="lijnlaag_copy">
</g>
<g id="rijksoverheid">
	<g>
		<path class="st1" d="M941.9,240.6c1.6,0,3.2-0.3,4.8,0c2.9,0.5,4.5,2.6,4.3,5.5c-0.2,3.9-0.7,7.8-1.1,11.7c-0.1,0.7-0.2,1.4-0.1,2
			c0.6,4.8,1.4,9.6,1.7,14.4c0.3,5.2,0.4,10.5-0.1,15.7c-0.3,3.4-0.2,6.7,0.1,10.1c0.3,3.1,0.2,6.2,0.2,9.3
			c-0.1,6.3-1.3,12.8-0.4,18.9c1,7.6,0,15.1,0.3,22.7c0.2,7.7,0.2,15.3,0,23c-0.1,6.7-0.8,13.5-0.9,20.2c-0.1,3.5-0.6,7,0.7,10.4
			c0.1,0.4,0.2,0.8,0.2,1.2c-0.1,5.3-0.2,10.5-0.4,15.8c-0.4,10.2-1,20.5-1.1,30.7c-0.1,5,0.7,10,1,15c0.1,1.3,0.3,2.8-0.2,4
			c-1.3,3.3-0.9,6.7-0.9,10c0.2,12.7,0.9,25.3,0.2,38c-0.1,2.5,0.6,5.1,0.6,7.6c-0.2,6.2-0.5,12.4-0.8,18.6
			c-0.2,3.9-0.6,7.8-0.7,11.7c-0.3,7.1-0.5,14.3-0.7,21.5c0,1.8,0,3.5,0.1,5.3c0,0.9,0.2,1.7,1.4,0.9c0.2,0.5,0.7,1.2,0.5,1.4
			c-2.4,3.5-1.6,7.4-1.5,11.2c0.2,6.2,0.3,12.4,0.3,18.6c0,7-0.1,14-0.3,21.1c-0.1,6.6-0.3,13.2-0.4,19.8c0,2.2,0.2,4.3,0.4,6.5
			c0.1,1.2,0.4,2.4,0.3,3.6c-0.4,5-0.6,10,0.6,14.9c0.1,0.5,0.1,1.1,0,1.6c-1.4,11.3-0.8,22.7-0.8,34c0,0.5,0.1,1.1,0,1.6
			c-1.8,8.7-0.6,17.6-1.1,26.3c-0.2,3.9,0.3,7.8,0.5,11.7c0.3,6.2,0.7,12.4,0.9,18.6c0,0.9-0.4,1.9-0.5,2.8
			c-0.2,1.7-0.3,3.5-0.4,5.2c-0.2,5.7-0.3,11.3-0.5,17c-0.1,3.4-0.3,6.7-0.4,10.1c-0.1,3.1-0.1,6.2-0.1,9.3c0,1.1,0.4,2.2,0.7,3.4
			c1-0.3,2.2-0.2,3-0.8c4.3-3.3,9.2-5.7,14.2-7.6c7.2-2.7,14.1-6.1,22-6.5c2-0.1,4-0.4,6-0.8c8.3-1.7,16.7-0.7,25,0
			c5.1,0.4,10.3,0.2,15.3,1.1c5.5,1,11.1,2.1,16.2,4.9c3.4,1.9,7.1,3.1,10.6,4.7c2.8,1.3,5.5,2.7,8.2,4.2
			c5.8,3.3,10.1,8.5,15.1,12.6c4,3.3,7.2,7.3,10.1,11.4c4.7,6.9,8.6,14.3,10.7,22.5c1,3.9,2.4,7.7,3.4,11.6c0.5,1.8,0.5,3.7,0.7,5.6
			c0.1,1.2,0.1,2.4,0.3,3.6c2.2,9.7,1.5,19.7,1.2,29.5c-0.2,5.5-2,10.9-3.1,16.3c-0.5,2.2-1.3,4.4-1.7,6.7c-0.9,4.8-3.8,8.6-6,12.7
			c-1.4-0.5-2,0.5-2.4,1.5c-1.1,2.4-2.4,4.9-3.2,7.4c-0.7,2-1.7,3.6-3.5,4.7c-0.6-0.3-1.2-0.7-1.9-0.8c-0.7-0.1-1.5-0.1-2.2-0.1
			c0.4-2.8,1.8-5.1,3.6-7.1c1.1-1.2,2.1-2.5,2.9-3.9c2.3-4.3,3.4-9.3,7-12.9c0.2-0.2,0.2-0.5,0.2-0.8c1.4-6.2,3.3-12.2,3.5-18.7
			c0.1-2.8,0.4-5.6,0.6-8.5c0.2-3.2,0.7-6.5,0.5-9.7c-0.5-5.9-1.3-11.8-2.2-17.6c-1.1-7.1-2.8-13.9-5.6-20.6c-0.7-1.6-1.1-3.4-2-4.9
			c-2.7-4.5-5.6-8.9-8.6-13.2c-1.4-1.9-3.3-3.5-4.9-5.2c-2-2-4-4-6-6c-2-1.9-4.1-3.9-6.2-5.7c-1.5-1.2-3.1-2.2-4.7-3.2
			c-2.8-1.8-5.3-4.1-8.7-5c-2.7-0.7-5.3-2.1-7.5-3.7c-4.6-3.5-9.8-5.2-15.2-6.1c-7-1.1-14.1-1.7-21.2-2.5c-1.2-0.1-2.4,0.1-3.6,0.2
			c-3,0.2-5.9,0.3-8.9,0.7c-4.8,0.7-9.6,0.3-14.3,2c-4.5,1.6-9.4,2.2-14.1,3.5c-3.6,1-7.1,2.4-10.7,3.7c-0.2,0.1-0.5,0.3-0.6,0.5
			c-1.4,2.8-4.1,3.3-6.8,3.9c-2.8,0.6-4.1,2.5-4.4,5.1c-0.4,4.2-0.7,8.4-0.8,12.5c-0.1,6.4,0.1,12.7,0,19.1
			c-0.1,5.2-0.4,10.5-0.7,15.7c-0.3,6.3-0.6,12.7-1,19c-0.2,3.5-0.6,7-1,10.5c-0.9,8.1,0.6,16.1,0.8,24.2c0.2,6.5,0.3,13,0.4,19.4
			c0,1.5-0.2,3-0.4,4.4c-1,8.2-0.9,16.4-0.2,24.7c0.1,1.7,0.7,3,1.8,4.4c1,1.2,1.8,2.7,2,4.2c0.3,2.7,1,5,3.3,6.6
			c-0.3,0.1-0.6,0.1-0.9,0.2c-6.1-1.6-10-6.2-13.8-10.8c1.9-0.1,3-0.8,2.9-3c-0.2-5-0.3-10-0.5-14.9c-0.2-5.1-0.5-10.2-0.7-15.3
			c-0.1-3.9-0.4-7.8-0.3-11.7c0.3-9.6,0.7-19.1,1-28.7c0.3-8.8,0.6-17.5,0.9-26.3c0.3-8.6,0.6-17.2,0.9-25.8c0.2-5,0.4-10,0.6-14.9
			c0.2-3.4,0.4-6.7,0.4-10.1c0-0.6-0.7-1.3-1.1-1.9c-0.5,0.4-1,0.8-1.4,1.2c-1.2,1.5-2.2,3.1-3.4,4.5c-3,3.5-6.2,6.8-9.1,10.3
			c-1.7,2-3.7,4-4.7,6.4c-3.3,7.6-8.2,14.2-11.1,22c-2.3,6.2-5.2,12.1-5.9,18.8c-0.8,8.1-3,16.1-1.4,24.5c0.6,3.1,0.2,6.4,1.4,9.5
			c0.5,1.3,0.4,2.9,0.5,4.4c-0.3,0-0.5,0-0.8-0.1c0-2.7-1.8-4.5-3.3-6.4l0,0c-0.5-1.2-0.7-2.8-1.7-3.4c-1.8-1.2-2-3-2.4-4.7
			c0.5-0.5,1.3-1,1.3-1.5c0.5-6.3,0.9-12.7,1.4-19c0.3-3.1,0.5-6.2,1.3-9.1c1.1-4,3.1-7.8,4.2-11.8c2.2-8,6.7-15,10.1-22.5
			c1.4-3,3.2-6,5.3-8.6c4.5-5.4,9.2-10.5,14-15.6c3.7-4,7.6-7.6,6.4-14c-0.5-2.8,0.3-5.9,0.3-8.9c0-4.3-0.2-8.6-0.1-12.9
			c0.1-7.8,0.3-15.7,0.5-23.5c0.1-3.8,0.1-7.5,0.2-11.3c0.1-3.4,0.6-6.7,0.6-10.1c-0.2-16.3-0.5-32.7,0.1-49
			c0.4-11.9,0.4-23.7,0.6-35.6c0-2,0-4.1-0.1-6.1c0-0.3-0.4-0.6-0.6-1c-0.3,0.4-0.7,0.7-0.7,1.1c-0.6,6.7-0.9,13.5-1.9,20.1
			c-1.2,8.2-2.9,16.2-4.6,24.3c-1.4,6.7-3.7,13.3-4.7,20.1c-1.2,8.2-4.4,15.8-6.4,23.8c-0.5,2.2-1.9,4.2-2.6,6.4
			c-2.4,7-3.6,14.3-6.8,21.1c-2.9,6.2-4.5,13-8.5,18.7c-5.5,8-8.9,17.2-13.8,25.5c-5.8,9.9-12.1,19.5-19.4,28.4
			c-1.4,1.7-3.1,3.4-3.1,6c-2.1-3.4-5-6.4-5.6-10.6c0.7,1,1.3,2,2,3c1.8,2.5,3.2,2.5,4.8-0.2c1.4-2.5,2.6-5,4-7.5
			c3.5-6.2,7.2-12.4,10.7-18.6c1.4-2.6,2.6-5.3,3.9-7.9c3.9-7.4,7.9-14.8,11.7-22.2c0.9-1.8,1.2-3.9,2.2-5.6
			c3.5-6,5.7-12.4,8.2-18.8c2.3-5.8,5-11.3,6.5-17.4c0.1-0.5,0.5-1,0.7-1.5c1.2-2.2,2-4.6,2.5-7.1c2.2-9.3,5-18.5,7.3-27.8
			c1.1-4.4,1.5-9,2.2-13.6c0.2-1,0.2-2.1,0.4-3.1c1.5-6.4,3.1-12.8,4.5-19.3c0.7-3.3,0.9-6.7,1.3-10c0.5-4.3,1.1-8.6,1.6-12.9
			c0.3-2.4,0.7-4.8,1-7.2c0.1-1.1,0.6-2.6,0.1-3.1c-2-2-1.1-3.8-0.5-6c0.3-1.2,0.1-2.7,0-4c-0.3-5.1-1.9-10.1-0.9-15.3
			c0.3-1.8,0.3-3.9-0.3-5.6c-2.1-6-1.3-12.6-3.9-18.5c-0.2-0.6,0-1.3-0.1-2c-0.1-2.7,0-5.4-0.3-8c-0.4-3.6-0.7-7.3-1.5-10.8
			c-1.4-6.2-3.5-12.2-4.8-18.4c-1.8-8.2-3.7-16.3-6.6-24.2c-1.6-4.4-2.9-9-4.4-13.5c-0.7-2.3-1.5-4.6-2.3-6.8
			c-1.6-4.3-3.2-8.6-4.8-12.9c0.5-0.4,0.9-0.8,1.4-1.2c1.2,1.3,2.4,0.4,3.6,0.1c1,1.9,2.3,3.7,3,5.7c2,5.6,3.7,11.3,5.6,16.9
			c2.1,6.3,4.7,12.4,6.4,18.8c2.3,8.6,3.9,17.4,5.7,26.1c1,4.7,2.4,9.4,2,14.3c-0.1,0.7,0.2,1.3,0.3,2c0.6,3.7,1.2,7.4,1.8,11.1
			c0.9,5,1.8,10,2.6,14.9c0.1,3.5-1,6.9,0.2,10.4c-0.1,2.7-0.3,5.3-0.3,8c0,0.5,0.6,1.1,0.9,1.7c0.2-0.5,0.7-1,0.7-1.6
			c0.1-3.5,0.2-7,0.2-10.5c-0.1-3.3,0.9-6.7-0.6-9.9c0.2-1.3,0.6-2.7,0.5-4c-0.2-6.7-0.5-13.4-0.8-20.2c-0.2-4.8-0.6-9.7-0.6-14.5
			c0-5.1,0.4-10.3,0.4-15.4c0-6.9-0.2-13.8-0.2-20.7c0-2.4,0.3-4.8,0.3-7.2c0.1-4.3,0.2-8.6,0.2-12.9c0-0.3,0-0.6-0.1-0.8
			c-1.9-6.2-0.1-12.6-0.5-18.9c-0.3-4.8,1.2-9.8,0.5-14.5c-0.7-4.7-0.7-9.4-1.2-14.1c-0.2-1.7,0.1-3.5,0.2-5.2
			c0.1-3.2,0.2-6.5,0.2-9.7c0-5.4-0.2-10.8-0.3-16.1c-0.1-2.4,0.2-5-0.5-7.2c-0.8-2.6-0.5-4.9,0.1-7.5c0.4-1.5,0.9-3.6,0.3-4.7
			c-1.8-2.9-0.9-5.8-0.5-8.5c0.8-5.3,2.3-10.5,1.1-15.9c-0.1-0.5,0.1-1.1,0.1-1.6c0.2-3.8,0.2-7.6,0.5-11.3
			c0.6-7.6-1.8-15.4,0.7-22.9c0.1-0.2,0-0.5,0-0.8c-0.4-4.8-0.8-9.7-1.1-14.5c-0.1-1.1,0.1-2.2,0.3-3.2c1.2-4.5,1-9.1,0.8-13.7
			c-0.4-9.3-0.5-18.6-0.8-27.9c-0.1-3.2-0.3-6.5-0.4-9.7c-0.2-9.1-1.4-18.3,0.2-27.4c0.2-1.2-0.2-2.5-0.4-3.8
			c-1.3,0.6-2.6,1.1-3.8,1.8c-0.7,0.4-1.3,1-1.7,1.7c-2.2,3.6-5.3,6.3-8.6,8.9c-2.2,1.7-4,3.9-5.9,6c-3.6,4-7.2,8-10.9,11.9
			c-4.1,4.3-8.2,8.5-12.4,12.8c-2.5,2.5-4.9,5-7.5,7.4c-2.5,2.3-5.3,4.2-7.7,6.5c-4.9,4.7-9.5,9.6-14.4,14.2c-2.4,2.2-5,4.1-6.4,7.2
			c-0.4,0.8-1.2,1.4-1.9,2c-3.4,2.9-7,5.5-10.1,8.7c-6.9,7.1-13.7,14.4-21.6,20.5c-1.1,1.6-2.2,3.2-3.3,4.8
			c-5.2,5.1-10.3,10.3-15.5,15.4c-0.8-1.6-1.6-3.2-2.4-4.8c4.8-4.7,9.6-9.4,14.3-14c1.8-1.8,1.8-2.4-0.4-4c-1.7-1.3-3.4-2.6-5.1-3.9
			c-1-1.7-1.9-3.5-3-5.1c-0.9-1.3-2-2.5-3.1-3.6c-1.5-1.5-2.8-1-3.8,0.7c-2.7-2.3-5.1-5.2-8.7-6.4c-0.7-0.2-1-1.2-1.6-1.8
			c-0.6-0.6-1.1-1.4-1.8-1.5c-3.4-0.7-5.8-2.7-7.9-5.2c-0.4-0.5-1.2-0.6-1.8-1c-1.1-0.7-2.2-1.5-3.2-2.3c-1.3-1-2.4-2.2-3.7-3.1
			c-2.6-1.6-5.5-2.8-8.1-4.5c-7.1-4.7-14.1-9.5-21.2-14.2c-2.2-1.5-4.5-2.9-6.8-4.2c-4.4-2.6-8.8-5.2-13.3-7.6
			c-5.3-2.7-11-4.7-16-7.8c-7.1-4.3-15.4-5.8-22.6-9.6c-3.6-1.9-7.5-3.1-11.3-4.6c-3-1.2-6-3.1-9.1-3.4c-5.4-0.5-9.8-4.7-15.5-3.9
			c-0.7,0.1-1.5-0.6-2.2-1c-1-0.4-1.9-1-3-1.3c-6.4-1.7-12.7-3.6-19.2-5c-9.1-2-18.3-3.7-27.4-5.5c-2.3-0.5-2.3-0.4-2.6,2.4
			c-1.7-4-3.3-8-5-12c0.9,0.8,1.7,1.7,2.8,2.3c0.6,0.3,1.6,0.5,2.1,0.2c3.6-2.1,7.4-1.6,11-0.9c3.6,0.8,7,0.2,10.4-0.2
			c2.1-0.2,4.3-0.3,6.4-0.4c3.5-0.2,7-0.4,10.4-0.6c3.5-0.2,7-0.6,10.5-0.7c5.5-0.1,11.1-0.1,16.6,0.1c3.9,0.1,7.8,0.6,11.7,0.6
			c2.3,0.1,4.6-0.3,6.9-0.4c0.9-0.1,1.9-0.1,2.8-0.1c5.1,0,10.1,0,15.2,0.1c2.4,0,4.8,0.2,7.2,0.3c0.7,0,1.3,0.1,2,0.1
			c7.9-0.3,15.8-0.6,23.7-1.1c5-0.3,9.9-0.9,14.9-1.4c1.2-0.1,2.4-0.2,3.6-0.2c9.2,0.1,18.4,0.6,27.5,0.1c3.7-0.2,7.2-0.9,11-0.6
			c4.5,0.4,9.1-0.4,13.6-0.7c4.3-0.2,8.6-0.6,13-0.6c2.2,0,4.5,0.6,6.8,0.7c3.4,0.1,6.7,0,10.1-0.2c4.2-0.2,8.3-0.7,12.5-0.8
			c1.8,0,3.7,0.7,5.6,0.8c3.5,0.1,7-0.1,10.5-0.1c6.8,0,13.7,0.1,20.5,0.3c1.1,0,2.1,0.4,3.2,0.6c0.5,0.2,1,0.5,1.5,0.6
			c0.8,0.1,1.6,0.1,2.4,0.2c0.8,0.1,2.3,0,1.2,1.5c-0.4,0.5-1.5,0.6-2.1,1c-0.2,0.1,0,0.8-0.2,1.1c-0.9,2.2-2.7,1.1-4.1,0.9
			c-1.6-0.3-0.8-1.2-0.2-2c0.1-0.2-0.5-1.3-0.7-1.3c-2.4,0-4.8,0.2-7.2,0.4c-0.4,0-0.7,0.4-1,0.5c0.4,0.3,0.7,0.6,1.1,0.9
			c0.4,0.3,0.8,0.6,1.2,0.9c-0.5,0.2-0.9,0.5-1.4,0.7c-1.4,0.4-2.8,0.7-4.3,1.1c-3,0-5.9,0-8.9,0c-6.2,0-12.4-0.2-18.6-0.1
			c-3.2,0-6.4,0.6-9.7,0.6c-2.8,0-5.7-0.5-8.5-0.5c-8.4,0-16.7,0.2-25.1,0.4c-6.3,0.1-12.6,0.4-18.9,0.6c-4.6,0.1-9.1,0.3-13.7,0.3
			c-4,0-8.1-0.2-12.1-0.1c-6.7,0.2-13.5,0.9-20.2,0.8c-6.9,0-13.7-0.4-20.5,0.7c-0.7,0.1-1.3,0-2,0c-6.2-0.3-12.3-0.9-18.5-1
			c-6.9-0.2-13.8,0-20.6,0.1c-2.2,0-4.3,0.4-6.5,0.4c-5.9,0-11.8,0-17.7-0.4c-5.7-0.4-11.3,1.7-17.1,0.7c-4.7-0.8-9.7-0.2-14.6-0.1
			c-0.5,0-1.2-0.1-1.6,0.2c-0.5,0.3-1,0.8-1.2,1.4c-0.1,0.2,0.5,0.9,1,1c0.7,0.3,1.6,0.4,2.4,0.5c2.8,0.4,5.7,0.6,8.4,1.2
			c10.2,2.2,20.4,4.1,30.4,6.8c9.3,2.5,18.4,5.5,27.4,8.7c8.5,3,16.8,6.6,25.1,10.1c3.1,1.3,6,3,9.1,4.5c1.2,0.6,2.4,1.2,3.6,1.8
			c3.5,1.7,7,3.4,10.5,5.2c4.4,2.4,8.7,4.9,13,7.4c2.9,1.7,5.9,3.3,8.7,5.1c4.3,2.7,8.6,5.6,12.9,8.4c3.9,2.6,7.8,5.3,11.7,7.9
			c3.4,2.2,6.9,4.2,10.3,6.3c1.7,1.1,3.2,2.4,4.7,3.7c1.4,1.2,2.6,2.9,4.2,3.7c5.4,3,9.5,7.5,13.8,11.8c3.3,3.2,6.3,6.7,9.6,9.9
			c1.9,1.9,2,1.8,3.8-0.1c4.2-4.6,8.2-9.3,12.3-13.9c0.5-0.6,1-1.4,1.6-1.7c5.6-2.5,9.2-7.3,13.4-11.4c4-3.9,6.6-8.9,11.4-12.2
			c6.8-4.8,12.2-11.4,18-17.4c3.7-3.8,7.2-7.7,11.1-11.3c8.2-7.7,16.5-15.1,24.8-22.8c1.7-1.5,3-3.4,4.5-5.2c0.8-0.9,1.5-2,2.4-2.7
			c3.1-2.6,6.3-5.1,9.5-7.6c1.8-1.9,1.6-2.4-1-3.2l0,0.1C939.7,243.4,940.8,242,941.9,240.6z M945.2,654.9c-0.2-0.9-0.3-1.6-0.5-2.2
			c-0.3,0.8-0.8,1.5-1,2.4c-0.1,0.4,0.2,1,0.4,1.5C944.5,656,944.9,655.4,945.2,654.9z"/>
		<path class="st1" d="M169.9,246.7c4.7-0.1,9.4-0.2,14.1-0.1c3.2,0,6.5,0.4,9.7,0.3c8.1-0.2,16.2-0.4,24.3-0.9
			c5.8-0.4,11.6,0.3,17.4,0.5c6.2,0.3,12.4-0.6,18.5-0.7c4.8-0.1,9.7,0.1,14.6,0.2c4.8,0.1,9.6,0.5,14.5-0.3
			c2.2-0.4,4.6,0.3,6.8,0.3c4.9-0.1,9.7-0.5,14.6-0.5c12.3-0.1,24.6,0.1,36.9,0c8.9-0.1,17.8-0.4,26.7-0.5c8.8,0,17.5,0.3,26.3,0.3
			c4.5,0,8.9-0.2,13.4-0.2c2.2,0,4.3,0.1,6.5,0.2c5.4,0.4,10.8,1,16.2,1.4c1.9,0.1,3.8-0.2,5.7-0.2c4.3,0.1,8.6,0.4,12.9,0.4
			c2.4,0,4.9-0.5,7.3-0.5c2.7,0,5.4,0.4,8.1,0.4c0.5,0,1.1-0.5,1.7-0.7c-0.4-0.5-0.7-1.1-1.1-1.5c-0.3-0.3-0.8-0.3-1.1-0.5
			c-5.6-2.9-11.3-5.9-16.9-8.8c-0.5-0.2-1-0.5-1.3-0.9c-6.6-6.6-14.3-12.1-19.7-19.8c-4-5.7-8-11.3-10.5-18.1
			c-2.1-5.7-3.4-11.6-5.7-17.3c-2-4.9-2.1-10.3-1.2-15.6c0.5-3,0.3-6.2,0.7-9.2c0.6-4.7,1-9.5,2.5-13.9c3.5-10.3,8.4-19.9,15.4-28.3
			c1.6-1.9,3-3.8,4.4-5.8c2.5-3.6,6.4-5.3,9.7-7.9c1.6-1.3,3-2.7,4.5-4c0.4-0.4,0.7-0.9,1.1-1.2c4.6-2.2,9.3-4.4,13.9-6.6
			c6-2.9,12.5-4.2,18.9-5.8c9.2-2.3,18.7-2.9,28.1-1.7c4.8,0.6,9.6,1.7,14.3,2.6c0.7,0.7,1.5,1.4,2.2,2.1c0.3,0.3,0.5,1,0.4,1.1
			c-1.4,1.3-2.9,2.4-4.4,3.6c-5.4-0.9-10.9-1.8-16.3-2.8c-4-0.7-8-0.9-12,0.2c-6,1.6-12.1,2.9-18.1,4.4c-2.2,0.6-4.4,1.4-6.5,2.2
			c-3,1.2-6,2.4-8.9,3.7c-3.8,1.6-8,2.5-10.4,6.5c-0.3,0.4-0.9,0.6-1.3,0.9c-7,5.7-14,11.5-18,19.9c-1,2-2.4,3.9-3.5,5.9
			c-1.3,2.2-2.7,4.4-3.6,6.7c-1.4,3.4-2,7.1-3.5,10.3c-2.7,5.7-2,11.6-2.1,17.5c-0.1,4.3,0.1,8.6,0.2,12.9c0,0.9-0.2,2,0.1,2.8
			c2.5,6.7,3.1,14,7,20.2c1.7,2.7,3.3,5.6,4.9,8.4c3.9,7,10.2,11.8,15.1,17.9c0.1,0.1,0.2,0.2,0.3,0.3c6.3,4.2,12.5,8.4,18.8,12.5
			c1.4,0.9,3.2,1.3,4.9,1.7c3.1,0.9,6.2,1.7,9.4,2.6c1.5,0.4,3.1,0.9,4.6,1.2c4.7,0.9,9.5,1.2,14.3,1.3c5.2,0.1,10.2,0,15.3-0.6
			c1.3-0.2,2.6,0,3.9,0.1c-2.2,1.1-3.2,2.9-3.7,5.3c-0.4,1.8,0,4.1-2.1,5.3c0.3-2.3-1.1-2.2-2.5-1.6c-5.4,2.5-11.2,2.9-16.9,4.1
			c-2.6,0.6-5.2,1.5-7.8,1.9c-4.1,0.6-8.3,0.5-12.3,1.5c-8.5,1.9-17,4.3-25.5,6.5c-1.8,0.5-3.8,0.8-5.3,1.8c-1.3,0.9-2.4,1.4-4,1.4
			c-1.6,0-3.2,0.3-4.8,0.7c-5.5,1.3-10.5,4.4-16.3,4.8c-0.1,0-0.3,0.1-0.4,0.1c-6.8,2.9-13.5,6.2-20.8,7.8c-0.5,0.1-0.9,0.5-1.4,0.8
			c-2.2,1.2-4.4,2.5-6.7,3.5c-2.3,1.1-4.8,1.8-7.1,2.9c-5.1,2.7-10.2,5.5-15.8,7.1c-1.8,0.5-3.3,1.3-4.1,3.4
			c-0.5,1.2-2.3,2.1-3.7,2.7c-2.2,1-4.8,1.3-6.7,2.7c-6.3,4.6-12,10-18.6,14.2c-4.6,3-9.3,6.1-12.8,10.4c-0.6,0.7-1.5,1.1-2.2,1.7
			c-4.2,3.7-9.9,5.7-12.9,10.9c-0.1,0.1-0.2,0.2-0.3,0.3c-3.9,3.1-7.8,6.2-11.7,9.3c-1.3,1-2.6,1.8-4,2.7c1,1.3,2.2,2.5,3.1,3.9
			c0.8,1.3,1.5,2.2,3.1,1.9c1.8-0.3,2.4,0.8,3.2,2.3c0.8,1.8,2.1,3.5,3.6,4.8c5,4.5,10.3,8.6,14.3,14.2c0.6,0.9,1.4,1.7,2.3,2.3
			c4.8,3.2,9.5,6.4,13.2,10.9c1.8,2.2,4.1,3.8,6.2,5.8c3.4,3.4,6.6,7.1,10.3,10.2c5.1,4.3,9.3,9.3,13.6,14.3
			c0.8,0.9,1.7,1.8,2.5,2.6c3.9,3.7,8,7.3,11.7,11.2c9.1,9.2,17.9,18.7,27.7,27.2c1.7,1.5,3.3,3.2,4.9,4.8c4.1,4.3,8.1,8.7,12.2,13
			c1.8,1.8,1.9,1.7,4-0.5c-0.3,2.8-1.5,5.2-3.4,7.2c-0.6-1-1.1-2.2-1.9-3c-5.2-4.8-10.5-9.6-15.8-14.3c-3.6-3.2-7.4-6.3-11-9.6
			c-3.4-3.1-6.5-6.4-9.9-9.5c-6.3-5.7-12.5-11.5-18.2-17.8c-0.3-1.1-0.5-2.3-0.8-3.4c-1.2-5.1-2.2-5.7-7.4-4.8
			c-3.7-3.8-7.5-7.7-11.2-11.5c-0.8-0.8-1.8-1.6-2.7-2.4c-1.1-1-2.2-1.9-3.3-2.9c-1.1-1.2-2-2.6-3.2-3.6c-4.7-3.8-9.2-7.9-12.8-12.8
			c-0.7-1.7-1.1-3.6-2-5.2c-0.8-1.3-1.9-2.8-3.2-3.4c-2.2-1.1-4.6-1.5-7-2.3c-2.1-2.1-4.1-4.3-6.2-6.4c-1-1.1-2.1-2.1-3.1-3.1
			c-1.5-1.6-2.9-3.1-4.3-4.8c-2.9-3.3-7.4-4.9-9.3-9.3c-1.1-2.4-3.1-2.4-5.2-0.5c-1.4,1.2-2.8,2.5-4,4c-2.9,3.4-5.5,6.9-8.4,10.3
			c-2.7,3-5.6,5.8-8.3,8.7c-1,1.1-1.6,2.4-2.5,3.6c-1.3,1.9-2.7,3.7-4.1,5.5c-1.5,1.9-3.3,3.6-4.5,5.6c-3.1,5-7.4,9.2-9.4,14.9
			c-0.3,1-1.2,1.8-1.9,2.6c-1.4,1.8-2.8,3.6-4,5.5c-2.2,3.4-3.8,7.2-6.3,10.3c-3.8,4.5-4.9,10.5-8.8,14.8c-0.2,0.3-0.1,0.8-0.3,1.2
			c-1.4,3.4-2.4,6.9-4.3,10c-3.2,5.3-5.7,10.9-8.2,16.6c-2,4.7-4.1,9.3-6.1,14c-0.6,1.2-1.6,2.3-1.9,3.6c-2.3,8.7-6.8,16.7-8.4,25.7
			c-1.2,6.9-3.7,13.5-3.8,20.6c0,0.8-0.4,1.5-0.7,2.3c-0.6,1.8-1.3,3.6-1.8,5.4c-1.9,8.2-3.7,16.3-5.5,24.5c-0.4,1.7-0.8,3.4-1,5.2
			c-0.5,6-0.9,12.1-1.4,18.1c-0.5,6.2-0.9,12.4-1.5,18.5c-0.2,2.5-0.8,5-1.2,7.5c-0.6-0.3-1.1-0.5-1.7-0.8c-0.3-0.8-0.8-1.5-0.8-2.3
			c0.2-3,0.6-6.1,0.9-9.1c0.1-0.8-0.1-1.6-0.3-2.3c-0.3-1.4-0.8-2.9-0.8-4.3c0.1-3.7,0.7-7.4,0.8-11.1c0.1-3.3,1.7-6.6,0.3-10
			c-0.2-0.6-0.2-1.4-0.1-2c0.4-2.2-0.9-5.2,2.7-5.9c0.2-0.1,0.3-1.2,0.4-1.9c0.8-5.3,1.5-10.7,2.3-16c0.4-2.5,1-5,1.5-7.6
			c0.9-4.8,1.8-9.5,2.7-14.3c1-5,1.3-10.4,3.3-15c4.3-10,7.5-20.2,11.1-30.4c1-2.9,2.6-5.7,3.1-8.7c1.3-7.6,6.2-13.7,8.2-21
			c0.2-0.7,0.9-1.4,1.3-2.1c3.2-5.4,6.6-10.7,9.6-16.2c3.7-6.8,7.2-13.8,11.5-20.3c3.6-5.5,6.1-11.7,11-16.3
			c0.7-0.6,0.9-1.6,1.4-2.5c2.2-4.1,4.5-8,7.9-11.2c2.1-1.9,3.9-4.1,5.7-6.3c2.6-3.2,4.6-7,7.6-9.8c4.4-4.1,8.1-9,13.3-12.3
			c1.2-0.8,2-2.2,2.9-3.4c0.9-1.2,0.6-2.3-0.5-3.2c-4.3-3.5-8.5-7-12.7-10.6c-2.4-2-4.6-4.1-6.8-6.3c-6-6.1-11.9-12.4-18.3-18.1
			c-1.9-1.7-3.4-3.8-5.1-5.7c-1-1.1-1.6-2.6-2.8-3.4c-5.4-3.7-10-8.1-14-13.3c-1.8-2.3-3.9-4.6-6.2-6.4c-4.5-3.5-8.3-7.7-12-12
			c-3.7-4.3-7.6-8.5-11.9-12c-3.2-2.6-6.1-5.3-8.4-8.7c-0.7-1.1-2.4-1.5-3.7-2.3c-0.4-2.1-0.4-4.4-2.5-5.8
			C170.5,250.1,170.2,248.4,169.9,246.7z M175.5,254.5c1.4,1,3,1.8,4.3,2.9c5.9,5.3,11.8,10.7,17.7,16c2.3,2.1,4.5,4.3,6.7,6.4
			c2.8,2.7,5.5,5.5,8.3,8.3c0.8,0.7,1.7,1.3,2.6,2c3.8,3.4,7.6,6.7,11.3,10.2c1.8,1.6,3.3,3.6,5,5.2c3.3,3.1,6.8,6.1,10.1,9.3
			c2.6,2.5,5.1,5.2,7.7,7.7c3.2,3.1,7,5.7,9.6,9.2c6,8.4,14.2,14.8,20.8,22.7c1.1,1.4,2.4,1.6,3.7,0.1c2.3-2.5,4.7-4.9,7.1-7.2
			c3.4-3.4,6.8-7,10.4-10.1c5.6-4.9,11.4-9.4,17.2-14.1c6.6-5.4,13.1-10.8,20.5-15.1c3.3-1.9,6.7-3.7,9.4-6.2
			c2.6-2.3,5.1-4.3,8.6-4.8c0.4-0.1,0.7-0.3,1.1-0.5c4.5-2.4,9.1-4.7,13.6-7.2c8.9-4.9,17.9-9.5,27.6-12.7c2.3-0.8,4.6-1.6,6.9-2.4
			c6.4-2.1,12.9-4.1,19.2-6.4c2.6-1,4.9-2.1,7.7-2.6c6.1-0.9,12.1-2.4,18.2-3.7c9.5-2,19-4.1,28.6-5.9c2.9-0.6,5.9-0.4,8.8-0.8
			c3.2-0.4,6.4-1.1,9.5-1.8c0.4-0.1,1-0.7,0.9-1c0-0.4-0.6-0.9-1-1c-0.5-0.2-1.1-0.1-1.6-0.1c-11.9,0.1-23.8,0.2-35.7,0.3
			c-0.4,0-0.8,0-1.2,0c-6.6,0-13.2,0.1-19.8,0.1c-4.3,0-8.7,0.2-12.9-0.1c-8.1-0.7-16.2,1.2-24.2,0c-0.3,0-0.5,0-0.8,0.1
			c-11.7,1.6-23.4,1-35.1,0.9c-4,0-8.2-0.4-12.1,0.2c-3.3,0.5-6.4,1-9.9,0.5c-5.4-0.9-10.8,1.2-16.4,0.9c-2-0.1-3.9,0.3-5.9-0.5
			c-1.5-0.6-3-0.5-4.1,0.9c-0.8,1.1-1.4,1.4-2.5,0.3c-0.5-0.5-1.5-0.9-2.2-0.8c-6.1,0.2-12.1-0.6-18.2,0.3
			c-4.5,0.6-9.1,0.4-13.7,0.3c-3.8,0-7.6-0.6-11.3-0.5c-7.7,0.1-15.4,0.6-23.1,0.6c-6.2,0-12.4-0.3-18.6-0.5
			c-7.1-0.1-14.3-0.4-21.4-0.3c-6.6,0.1-13.1,0.4-19.7-1.1c-3.1-0.7-6.8-0.9-9.9,1c-0.5-0.4-1.1-0.9-1.7-1.1
			c-0.5-0.2-1.2,0.1-1.8,0.2c0.3,0.5,0.5,1.1,0.9,1.6C174.9,254.4,175.2,254.4,175.5,254.5z"/>
		<path class="st1" d="M786.8,1015.3c1,0,2.1,0,3.1,0c1.3,1.7,3.1,1.6,4.9,1.5c9.5-0.1,19-0.2,28.5-0.2c1.1,0,2.1,0.2,3.2,0.3
			c-3.2,0.3-6.4,0.9-9.6,1c-10.4,0.4-20.8,0.6-31.2,0.8c-4.6,0.1-9.2-0.1-13.7-0.1c-10.6,0.1-21.3,0.4-31.9,0.5c-7,0-14-0.4-21-0.4
			c-4.4,0-8.9,0.5-13.3,0.6c-7.3,0.1-14.5,0-21.8,0c-2.2,0-4.3-0.1-6.5-0.1c-11.6-0.4-23.2-0.8-34.8-1.2c-3.9-0.1-7.8,0.2-11.7,0.2
			c-7.8,0-15.6-0.2-23.5-0.2c-3.9,0-7.8,0.5-11.7,0.5c-5.7,0-11.3-0.2-17-0.5c-8.1-0.4-16.1-1.3-24.2-0.7
			c-6.2,0.5-12.4,0.3-18.6,0.4c-2.6,0-5.1,0-7.7,0c-0.7-1-1.8-1.9,0.4-2.4c0.5-0.1,0.8-1.1,1.2-1.7c0.6-0.2,1.3-0.5,1.9-0.5
			c1.5,0,3.2,0.7,4.3-1c-1.5-0.3-3-1-4.6-0.9c-2.7,0.1-5.3,0.6-8,0.9c-0.3-0.3-0.6-0.5-0.9-0.8c-3.4-2.3-3.4-2.3,0.1-4.2
			c3.4,0.3,6.7,0.5,10.1,0.8c4.4,0.3,8.9,0.6,13.3,1.1c2.8,0.3,5.6,0.8,8.4,1c2,0.2,2.6-0.6,2.5-2.6c-0.1-1.2-0.4-2.4-0.5-3.6
			c-0.4-4.6-1.1-9.1-1.1-13.7c0-3.6,0.6-7.2-0.6-10.8c-0.2-0.7,0.1-1.6,0.1-2.4c0-2.6,0.1-5.1,0-7.7c-0.1-2.4-0.7-4.8-0.6-7.1
			c0.1-4,0.9-8.1,0.9-12.1c0.1-7.8,0-15.6-0.1-23.5c0-2,0-4.1,0-6.1c0-5.1-0.2-10.2,0.2-15.3c0.3-4.1,0.8-8.1-0.2-12.3
			c-0.5-2.1,0-4.5,0.1-6.8c0-1.6,0.1-3.2,0-4.8c0-1.2-0.3-2.4-0.3-3.6c0-9,0.2-18,0.2-27c0-6.2-0.5-12.4,0-18.5
			c0.4-6.2-1.4-12.4,0.8-18.5c0.1-0.3-0.1-0.8-0.1-1.2c-0.9-7.5-0.7-15.1-0.1-22.6c0.1-1.7,0.3-3.5,0.3-5.3
			c-0.1-7.1-0.8-14.3-0.4-21.4c0.8-13.9-0.4-27.8,0.1-41.7c0.1-2.7,0.5-5.3,0.6-8c0.1-5,0-10-0.1-15c-0.2-8.6-0.5-17.3-0.7-25.9
			c-0.1-2.9-0.4-3.3-3.3-3.4c-3.5-0.1-7-0.1-10.5-0.1c2.6-0.3,5.3-0.6,7.9-0.9c2.2-0.3,4.5-0.5,6.7-0.8c0.5-0.1,1.3-0.4,1.5-0.1
			c2.2,2.3,5,1.4,7.6,1.8c0.8,0.1,1.5,0.5,2.2,0.8c-1.9,0-3.8-0.1-5.7,0.1c-0.7,0.1-1.9,0.9-1.9,1.5c-0.2,3.2-0.3,6.5-0.2,9.7
			c0,2.8,0.3,5.7,0.4,8.5c0.1,3.4,0.3,6.7,0.4,10.1c0.1,3.1,0.2,6.2,0.2,9.3c0,1.6-0.2,3.2-0.2,4.9c0.1,8.4,0.4,16.7,0.4,25.1
			c0,5.7-0.6,11.3,1.3,16.9c0.5,1.5,0.1,3.2,0.1,4.8c-0.4,7.7-0.9,15.3-1.3,23c-0.2,4.6-0.1,9.2-0.2,13.8c-0.1,2.2-0.5,4.3-0.5,6.5
			c0.1,5.8,0.4,11.6,0.7,17.4c0.1,2.8,0.6,5.7,0.6,8.5c0,7.4-0.2,14.8-0.4,22.2c-0.1,4-0.2,8.1-0.3,12.1c-0.2,6.3-0.8,12.7-0.7,19
			c0.1,7.9,1.1,15.9,1.2,23.8c0.1,9.6-0.2,19.2-0.3,28.7c-0.1,8.1-0.2,16.2-0.2,24.3c0,10.3,1.2,20.5,0.3,30.8
			c-0.3,4.1,0.1,8.4,0.4,12.5c0.2,2,1.2,3.9,0.4,6c-0.1,0.4,0.6,1.6,1.1,1.6c2.1,0.2,4.3,0.4,6.4,0.2c8-0.9,16-2.1,24-3.1
			c1,1,2.3,1.8,1.8,3.5c0.3,2,1.8,2.2,3.3,2.2c5.5,0.1,11,0.2,16.5,0.1c4.8-0.1,9.7-0.7,14.5-0.7c9.4,0.1,18.9,0.2,28.3-1
			c2.8-0.4,5.6-0.6,8.4-0.5c6,0.2,12,0.8,18.1,0.3c6.2-0.5,12.4,0,18.6,0.1c5,0.1,9.9,0.5,14.9,0.7c4.1,0.2,8.3,0.1,12.4,0.3
			c3.9,0.2,7.8,0.6,11.7,0.8c0.5,0,0.9-0.3,1.4-0.5c-0.3-0.5-0.5-1.2-1-1.5c-1.4-1-3.1-1.6-4.4-2.7c-1.8-1.5-3.4-3.4-5.2-5
			c-1.8-1.7-3.6-3.2-5.4-4.8c-1.5-3.1-1.9-6.8-4.8-9.1c0.4-0.3,0.7-0.7,1.1-1c3.9,3.8,7.8,7.7,11.8,11.4c5.2,4.7,11.2,8.3,18.2,9.6
			c2.8,0.5,5.5,1.3,8.3,1.5c3.7,0.3,7.4,1,11.2,0.2c3.1-0.7,6.2-1.9,9.5-0.7c0,0.5,0,1.1,0,1.6c0,0,0,0,0,0c-1,1.7-0.7,2.9,1.4,3.1
			C785,1016,785.9,1015.5,786.8,1015.3z"/>
		<path class="st1" d="M168.3,999.1c-0.8,0.3-1.6,0.5-2.4,0.8c-1.1,0.3-2.2,0.6-3.3,0.8c-0.9,0.2-1.7,0.4-2.6,0.6
			c-0.3-4.2,0.9-8.4,0.3-12.7c-0.7-4.9-0.6-9.9-0.9-14.9c-0.3-5.5-0.7-11-1-16.6c-0.1-1.6,0.2-3.2,0.1-4.8
			c-0.2-3.9-0.6-7.8-0.8-11.7c-0.1-2.8-0.2-5.6-0.2-8.5c0-0.4,0.1-0.8,0.1-1.2c-0.8-10.7,1.4-21.3,0.9-32c-0.4-9.6-0.2-19.2,0-28.7
			c0.3-10.8,0.7-21.6,1.4-32.3c0.6-9.7,1.8-19.4,2.7-29.1c0.1-0.7,0.2-1.3,0.2-2c0-1.3-0.4-1.9-1.9-2c-4.1-0.3-8.3-0.9-12.4-1.3
			c-0.3,0-0.5-0.1-0.8-0.1c-5.7,0.2-11.3,0-16.9,0.6c-4.8,0.5-9.5,1.8-14.3,2.7c-2.6,0.5-5.3,1.1-7.9,1.7c-1.4,0.3-2.9,0.6-4.3,1.1
			c-4.9,1.9-9.7,3.8-14.6,5.7c-2.1,0.8-4.4,1.1-6.4,2.1c-3.5,1.8-6.7,3.9-10.1,5.9c-0.6-0.3-1.2-0.6-1.7-0.9c2.4-1.7,5-3.2,7.3-5.1
			c7.9-6.6,17.2-9.9,27-12.2c5.2-1.2,10.4-2.8,15.6-4.1c11.8-2.8,23.8-3.1,35.8-2.2c1.2,0.1,2.4,0.3,3.6,0.5
			c2.5,0.5,2.8,0.3,2.8-2.3c0-4.2-0.2-8.3-0.2-12.5c0-3,0.6-5.9,0.7-8.9c0.2-9.1-0.2-18.1,0.3-27.2c0.5-9.7-0.3-19.4-0.4-29.1
			c0-2.8,0.2-5.6,0.3-8.4c1.2-1.5,0.4-4.3,3.1-4.8c0.4,7.5,0.9,15,1.3,22.5c0.3,6.3,0.5,12.7,0.7,19c0.1,2.2,0,4.3,0.1,6.5
			c0.1,1.4,0.1,4.3-0.1,6c-0.2,1.5-0.1,3-0.2,4.5c0,3-0.1,6,0,8.9c0.2,7.4,0.2,14.9,0.8,22.2c0.6,7.6,0.8,6.2,7.8,8
			c2,0.5,4.2,1.1,6,2.1c5,2.7,9.8,5.7,14.7,8.6c-0.2,1.3-0.4,2.7-2,2.5c-0.9-0.1-2-0.9-2.4-1.7c-1.1-2.1-2.5-3.4-4.9-3.6
			c-0.9-0.1-1.6-0.8-2.5-1.2c-2.4-1.2-4.6-3.6-7.4-0.7c-0.3,0.3-1.1,0.2-1.5,0c-1.9-0.6-3.8-1.3-5.6-2c-0.5-0.2-0.9-0.4-1.3-0.6
			c-0.1,0.6-0.1,1.2-0.1,1.9c0,0.4,0.2,0.8,0.3,1.2c-0.2,0.8-0.5,1.5-0.7,2.3c0,1.9-0.2,3.8-0.1,5.6c0.1,2.4,0.3,4.8,0.4,7.2
			c0,2-0.2,4-0.2,6c0,3.6-0.3,7.2,0.2,10.8c0.6,5-0.3,9.8-1,14.8c-0.7,4.9,0,10,0.1,15.1c0.2,6.7,0.6,13.4,0.8,20.1
			c0,1.3-0.2,2.7-0.4,4c-0.2,2-0.5,4-0.7,6c-0.2,2.6-0.2,5.1-0.3,7.7c0,2.5-0.3,5.2,0.2,7.6c0.9,4,1,8,0.4,12.1
			c-0.1,0.6,0.1,1.3,0.2,2c-0.1,2.5-0.3,5.1-0.4,7.6c-0.1,4.7,0.9,9.4-1,13.9c-0.2,0.5-0.1,1.1,0,1.6c0.1,2.7,0.3,5.4,0.3,8
			c0,2.7-0.2,5.4-0.2,8c0,2.8,0.1,5.7,0.4,8.5c0.2,2.2,0.6,4.5,0.9,6.7c0,0.6,0,1.2-0.1,1.8c0,1.3,0,2.6,0,3.9
			c0,0.3,0.1,0.5,0.1,0.8c0,1.9,0,3.8,0,5.7C169.4,998.5,168.9,998.8,168.3,999.1z M162.9,869.4c0,0,0.1,0,0.1,0c0,2.8,0,5.7,0,8.5
			c-0.1,6.6-0.2,13.2-0.3,19.8c0,0.6,0.5,1.1,0.7,1.7c0.3-0.5,0.8-1.1,0.8-1.6c0.3-8.1,0.7-16.2,0.8-24.2c0.1-8.6,0-17.2,0-25.8
			c0-0.9-0.1-1.9-0.2-2.8c0-0.2-0.3-0.5-0.5-0.5c-0.2,0-0.6,0.2-0.6,0.4c-0.2,0.8-0.3,1.6-0.3,2.4
			C163.3,854.6,163.1,862,162.9,869.4z M162.7,913C162.7,913,162.7,913,162.7,913c0,0.7-0.1,1.4,0,2c0.1,2.7,0.2,5.4,0.4,8.1
			c0,0.4,0.6,0.7,0.9,1.1c0.3-0.4,0.9-0.7,0.9-1.1c0.1-1.3,0.1-2.7,0.1-4c-0.1-3.9-0.2-7.8-0.3-11.7c0-0.7,0-1.4-0.2-2
			c-0.2-0.7-0.8-1.2-1.2-1.8c-0.2,0.6-0.6,1.2-0.7,1.8C162.6,907.8,162.7,910.4,162.7,913z M165.3,934.7c-0.3-2-0.6-4-1-5.9
			c-0.1-0.3-0.4-0.6-0.7-0.9c-0.2,0.3-0.6,0.6-0.6,0.9c-0.1,3.2-0.1,6.4,0,9.6c0,0.4,0.4,0.8,0.6,1.2c0.4-0.3,1-0.6,1.1-1
			C165.1,937.3,165.2,936,165.3,934.7z"/>
		<path class="st1" d="M581.1,199.1c-2-3.7-2.9-3.7-6.7-0.2c1.7-7.9,3.2-15.9,5.1-23.7c1-4.1,0.8-8,0.2-12c-0.4-2.9-0.4-5.9-0.5-8.8
			c0-0.8,0.1-1.7-0.2-2.4c-1.4-4.4-1.5-9.3-4.7-13.1c-0.4-0.5-0.5-1.2-0.7-1.9c-1.3-4.5-3.4-8.4-7-11.6c-0.6-0.5-1-1.3-1.1-2
			c-0.8-5.1-4.2-8.2-8.2-11c-1.2-0.8-2-2.1-3-3.3c-0.8-0.9-1.2-2.2-2.1-2.9c-3.3-2.5-6.6-5.1-10.2-7.2c-7.1-4.1-14.5-7.6-22.2-10.4
			c1.5-1.2,3-2.4,4.4-3.6c0.1-0.1-0.1-0.9-0.4-1.1c-0.7-0.8-1.4-1.4-2.2-2.1c2.4,0.9,4.8,1.8,7.2,2.7c-2.1,0.7-2,1.6-0.3,2.6
			c3.3,1.8,6.6,3.5,9.9,5.3c1.8,0.9,3.7,1.8,5.3,2.9c6.1,4.2,11.6,9.2,16.6,14.6c2.5,2.7,5.3,5.2,7.1,8.2c3.8,6.2,7.2,12.6,10.6,19
			c0.7,1.4,0.9,3.1,1.4,4.6c0.1,0.3,0.5,0.5,0.8,0.7c0.2-0.3,0.4-0.6,0.6-1c0.1-0.4,0.1-0.8,0.2-1.2c0.3,1.3,0.7,2.6,1,3.9
			c0.8,3,1.6,6,2.2,9c0.7,3.3,1.7,6.7,1.5,9.9c-0.5,8.1-1.5,16.1-2.5,24.2c-0.2,1.6-0.9,3.1-1.3,4.7
			C581.8,194.4,581.5,196.8,581.1,199.1z"/>
		<path class="st1" d="M48.1,850.3c0.9-3.4,2.3-6.5,5.7-8.1c0,0,0,0,0,0C53.6,846.1,52,849,48.1,850.3L48.1,850.3z"/>
		<path class="st1" d="M35.8,917.8c-0.5,0-1,0-1.4,0c-0.3-3-0.6-6.1-0.9-9.1c0-0.4,0.5-0.8,0.8-1.2c0.3,0.4,0.9,0.7,0.9,1.2
			C35.4,911.7,35.6,914.8,35.8,917.8z"/>
		<path class="st1" d="M43.7,943.7c-1.1,0.7-1.6,1-1.7,1c-0.4-0.3-0.7-0.7-0.9-1.2c0-0.1,0.5-0.6,0.8-0.6
			C42.3,943,42.8,943.3,43.7,943.7z"/>
		<path class="st1" d="M602.3,667.3c-1.5,0.1-3,0-4.5,0.2c-0.5,0.1-1.1,0.6-1.4,1.1c-0.1,0.2,0.5,1.1,0.8,1.2c3.3,0.7,4.3,4.2,7,5.7
			c2.6,1.4,4.6,3.8,6.8,5.7c4,3.5,7.9,6.9,11.9,10.4c0.7,0.6,1.4,1.2,2.1,1.9c5.6,6.5,12.2,11.8,18.2,17.8
			c6.6,6.5,13.3,13,19.8,19.7c4.4,4.5,8.5,9.4,12.7,14.1c0.2,0.2,0.3,0.5,0.5,0.6c7.2,4,10.9,11.5,16.6,16.9
			c6.6,6.3,13.3,12.7,19.7,19.2c5.3,5.4,10.4,11,15.5,16.5c3,3.2,6,6.5,9,9.8c1.2,1.3,2.2,2.7,3.3,4c2.5,2.7,5,5.3,7.6,7.9
			c5.3,5.3,10.6,10.7,16,15.9c2.4,2.4,5,4.5,7.6,6.7c0.4,0.3,0.9,0.5,1.4,0.8c0-0.6,0-1.3-0.1-1.9c0-0.4,0-0.8-0.1-1.2
			c0.6,1.4,1.2,2.8,1.7,4.3c0.8,2.3,1.6,4.7,2.3,7.1c1.4,2.2,2.7,4.3,4.1,6.5c0,0.3,0,0.6,0.1,0.8c-0.1,0.6-0.1,1.1-0.2,1.7
			c-2.1-4-4.7-7.5-8.5-10.1c-1-0.7-1.8-1.6-2.6-2.5c-4.8-4.9-9.7-9.7-14.5-14.6c-5.6-5.8-11-11.8-16.7-17.6
			c-6.5-6.6-13.2-13-19.8-19.5c-1.7-1.7-3-3.9-4.7-5.6c-4-4-8.1-7.9-12.2-11.9c-1.1-1.1-2.2-2.4-3.2-3.6c-0.9-1-1.6-2.5-2.7-2.9
			c-2.9-1.1-4.6-3.4-6.1-5.6c-4.2-6.2-10.5-10.4-15.2-16.2c-2.2-2.7-5.6-4.4-7.7-7.1c-3.4-4.4-8-7.4-11.7-11.3
			c-3.8-4-8-7.7-11.6-11.8c-5.5-6.3-11.7-11.9-17.5-17.9c-2.3-2.4-5-4.3-7.5-6.4c-0.8-0.7-1.8-1.3-2.3-2.2
			c-4.8-7.8-12-13.1-18.7-18.9c-0.4-0.4-0.9-0.6-1.2-1c-3.5-4.8-8.5-5.2-13.8-5c-0.8,0-1.6,0-2.4-0.1c2-0.3,3.9-0.8,5.9-0.8
			c3.5-0.1,6.9,0.2,10.3-1.2C598.3,666.2,600.4,666.1,602.3,667.3z"/>
		<path class="st1" d="M574.7,639.6c-2.5,0.3-5,0.6-7.4,0.9c-1.3,0-2.7,0-4,0c1.4-0.4,2.7-1,1.1-2.7c-0.5-0.5-1-0.9-1.5-1.3
			c-1-0.9-1.7-2.9-3.4-1.9c-1.6,1-1.1,2.8-0.8,4.4c0.1,0.5,0.5,1,0.7,1.4c-1.9,0-3.8,0-5.8,0c0.9-0.5,2.4-0.9,2.5-1.6
			c0.3-1.6,0.3-3.5-0.1-5.1c-0.3-1.2-1.4-0.9-2.1,0c-1.2,1.4-2.5,2.8-3.6,4.3c-0.5,0.6-0.4,1.6-0.6,2.5c-4.1,0.4-8.2,0.8-12.3,1
			c-1.6,0.1-3.2-0.1-4.8-0.2c-0.6-0.3-1.2-0.6-1.8-0.8c1.2,0,2.4,0.1,3.5,0.1c2.1-0.1,4.8,0.5,6.3-0.5c3.9-2.5,7.4-5.8,11-8.8
			c1.1-0.9,1-2.2,0.1-3.3c-2.2-2.5-4.1-5.7-6.9-7.4c-5.9-3.5-9.2-9.3-14.1-13.7c-5.6-5-11-10.3-16.4-15.5c-2.4-2.3-4.5-5-7-7.2
			c-4.7-4.2-10-7.7-13.2-13.4c1.4,0,2.5,0.3,3.4,1.7c0.8,1.3,2.1,2.3,3.2,3.3c1.2,1.1,2.5,2,3.7,3c2.7,2.4,5.4,4.8,8.1,7.2
			c0.3,0.2,0.7,0.2,1.1,0.3c0.1-0.5,0.4-0.9,0.4-1.4c0-0.4-0.1-0.8-0.2-1.2c5.4,5.5,11,10.7,16.1,16.4c4.4,4.9,10.2,8.5,13.3,14.6
			c0.2,0.3,0.5,0.6,0.8,0.9c2.7,2.5,5.3,5,8,7.4c0.8,0.7,2,1.1,3,1.6c0.3-1,0.9-1.9,1-2.9c0.1-4.9,0.1-9.7,0-14.6
			c-0.2-13.8-0.6-27.6-0.8-41.4c-0.1-9.5-0.1-18.9-0.2-28.4c0.7,1,1.8,1.9,1.9,2.9c0.3,3.3,0.2,6.6,0.2,9.9c0,2.5-0.6,5.1-0.1,7.5
			c0.3,1.5,1.2,2.9,0.9,4.6c-0.1,0.5,0.5,1,0.8,1.6c0.5-0.4,1-0.9,1.5-1.3c-0.3,3.3-0.6,6.5-0.9,9.8c-0.2-0.8-0.4-1.5-0.7-2.3
			c-0.2-0.8-0.5-1.6-0.8-2.4c-0.3,0.8-1,1.5-1,2.3c-0.1,4.1-0.1,8.3,0.1,12.4c0.1,1,1,2,1.6,3.1c0.2,1,0.6,2.1,0.6,3.1
			c-0.1,9.4-0.2,18.9-0.3,28.3c0,1.6-0.3,3.2-0.3,4.8c0,0.6,0.3,1.2,0.5,1.8c0.5-0.3,1.2-0.5,1.6-0.9c4.9-4.6,9.8-9.3,14.7-13.9
			c1.5-0.4,2.5-1.4,2.7-3c3.3-3.3,7.3-6.2,9.9-10c2.4-3.6,5.6-6.1,8.7-8.8c2.5-2.2,5.3-4.3,7.3-6.9c1.9-2.6,5.3-3.6,6.3-7
			c0.1-0.4,0.9-0.5,1.4-0.8c1.7-1.1,3.4-2.2,4.9-3.5c2.9-2.6,5.7-5.3,8.4-8c1.5-1.5,3.1-3,4.6-4.5c2.2-2.2,4-4.9,6.5-6.5
			c3.1-1.9,4.4-4.1,3.6-7.5c0.8,1.1,1.6,2.2,2.4,3.4c0,0.2,0.1,0.4,0.2,0.6c0.2,0.9,0.4,1.8,0.6,2.6c-2-0.6-3,0.6-3.7,2.2
			c-2.8,5.7-8,9.5-12.3,13.9c-3.3,3.3-6.9,6.3-10.6,9.3c-4.2,3.5-7.2,8.2-11.9,11.4c-3.8,2.6-6.9,6.3-10.3,9.6
			c-2.5,2.5-4.9,5-7.3,7.6c-4.1,4.3-8.3,8.5-12.4,12.7c-0.3,0.3-0.7,0.4-1,0.6c-4.1,3.7-8.1,7.5-12.2,11.2c-1.4,1.3-1.1,2.6,0.4,3.7
			c2.4,1.8,4.7,3.6,7.2,5.3C570.6,637.7,572.7,638.6,574.7,639.6z"/>
		<path class="st1" d="M831.5,360.1c1.9,2.1,3.8,4.2,5.9,6.1c6.1,5.6,11.2,12.1,16.2,18.6c4.9,6.4,9.8,12.9,14.4,19.5
			c5,7.2,9.4,14.8,14.4,21.9c3,4.2,4.9,9,7.4,13.4c3.9,6.9,8.1,13.7,11.8,20.7c2.4,4.5,4.2,9.4,6.2,14.1c2.4,5.6,4.7,11.2,6.9,16.9
			c0.8,2,1.4,4.1,2.1,6.1c-1.2,0.3-2.5,1.2-3.6-0.1c-0.5,0.4-0.9,0.8-1.4,1.2c-1.8-4.4-3.4-8.8-5.3-13.1c-2.9-6.4-5.9-12.7-8.9-19.1
			c-1.1-2.3-2.2-4.6-3.3-6.9c-4.7-9.6-10.9-18.2-16.3-27.4c-1.3-2.2-2.5-4.5-3.7-6.7c-2.1-3.7-3.7-8-6.6-11.1
			c-3.8-4.1-5.7-9.1-8.9-13.4c-1.8-2.5-4-4.7-6-7.1c-2.1-2.5-4.1-5-6.1-7.6c-5-6.3-10.6-12.2-14.9-19c-0.9-1.4-2-2.1-3.6-2.2
			C829.3,363.3,830.4,361.7,831.5,360.1z"/>
		<path class="st1" d="M815.1,934.1c-1-1.2-2.1-2.3-3.1-3.5c-1.3-1.5-2.5-3.2-3.8-4.7c-0.9-0.9-1.9-0.9-2.8,0.2
			c-0.2,0.2-0.4,0.4-0.5,0.6c-3.7,6.8-10.6,10.7-15.8,16c-3.4,3.5-8,5.9-12.2,8.5c-6.8,4.2-13.5,8.4-20.6,12.1
			c-7.1,3.7-14.4,7.1-22.2,9.4c-4.5,1.3-9,3.2-13.5,5c-2.9,1.2-2.9,1.8-1.3,4.6c1.4,2.3,2.8,4.6,4.2,6.9c-0.4,0.3-0.7,0.7-1.1,1
			c2.9,2.3,3.3,6,4.8,9.1c-1.7-1.5-3.6-2.9-5.1-4.6c-2.7-3.1-5-6.3-5.9-10.4c-0.5-2.5-1.7-2.7-3.8-1.5c-7.4,4.3-15.5,7-23.5,9.7
			c-3.8,1.3-8,1.9-11.5,3.7c-4.9,2.5-10.1,3.8-15.2,5.2c-2.7,0.7-5.5,1.4-8.2,2c-3.8,0.8-7.7,1.2-11.5,2.2c-7.6,2-15.1,3.9-23,4.5
			c-2.9,0.2-5.8,1-8.7,1.1c-5.2,0.2-10.5,0.2-15.7,0.2c0.5-1.7-0.8-2.5-1.8-3.5c4-0.1,7.9-0.4,11.8-1.4c5.1-1.3,10.4-1.6,15.6-2.5
			c5.6-0.9,11.1-1.9,16.7-2.7c5.6-0.9,11.1-2.1,16.2-4.5c0.9-0.4,2.1-0.1,3.2-0.2c2.1-0.1,4.2,0.1,6.2-1.4c1-0.8,2.5-0.9,3.8-1.2
			c4.8-1,9.4-2.2,13.9-4.3c4.5-2.1,9.4-3.2,14.1-4.9c3.8-1.4,7.5-3,11.2-4.5c1.9-0.8,3.7-1.6,5.6-2.3c2.8-1,3.1-1.2,2.4-4
			c-1.1-4.3-1.5-8.5-1.1-12.9c0.5-5.5,1.4-10.8,4.4-15.8c2.6-4.3,4.3-9.3,6.5-13.9c1.8-3.9,4.5-7,8.6-8.6c1.7-0.7,3.3-1.9,4.4-3.3
			c2.5-3.1,5.8-4.9,9.3-6.2c4.2-1.5,8.3-3.3,12.7-3.9c8.2-1.1,16.4-3.3,24.9-0.9c3.3,0.9,6.9,1.2,10.1,2.5c3.1,1.2,6.1,2.8,9.2,4.3
			c1.7,0.8,2.9,0.9,3-1.4c1.7,3.2,3.3,6.3,5,9.5c1.1,2,2.1,3.9,3.2,5.9c0,0,0,0,0,0C814.5,930.8,814.8,932.5,815.1,934.1z
			 M772.1,947.8c2.8-0.5,5.4-1.3,7.8-3.1c1.9-1.4,0.4-1.9-0.5-2.6c2-1.6,3.9-3.2,6-4.7c2.4-1.7,5.1-3,7.3-5
			c3.6-3.2,6.9-6.8,10.3-10.1c2.2-2.1,2.2-2.1-0.5-3.7c-0.7-0.4-1.4-0.7-2.2-0.9c-3.7-1.2-7.5-2-11-3.6c-2.2-1-4.3-1.3-6.6-1.4
			c-1.3-0.1-2.7-0.3-4-0.5c-4-0.4-8-1.4-12,0.3c-1.1,0.4-2.4,0.1-3.6,0.4c-4.3,1.1-8.7,1.8-12.7,3.5c-3.1,1.3-5.1,4.8-8.9,5.2
			c-0.3,0-0.6,0.5-0.9,0.7c-2.6,2.5-5.5,4.8-7.6,7.7c-3.5,4.9-6.6,10.1-9.8,15.2c-0.2,0.3-0.3,0.8-0.4,1.1c-0.8,1.9-1.6,3.7-2.3,5.6
			c-0.5,1.4-1,2.8-1.2,4.3c-0.8,5.3-1.4,10.7-2,16c-0.1,0.6,0.1,1.3,0.5,1.7c0.1,0.2,1-0.1,1.4-0.3c3.6-1.5,7.2-3.1,10.7-4.6
			c6.7-3,13.5-6,20.2-9.1c0.2-0.1,0.5-0.2,0.7-0.4c2.9-3.4,7.4-4.3,10.6-7.2c0.7-0.6,1.6-1.1,2.5-1.4
			C766.6,949.9,769.4,948.9,772.1,947.8z"/>
		<path class="st1" d="M172.5,421.9c-0.5-0.9-1-1.8-1.5-2.7c0.7-0.4,1.9-0.7,2.1-1.4"/>
		<path class="st1" d="M706.2,486.1c-1.3-3-2.7-6-4-9c0.3,0.4,0.6,0.9,1,1.3c1.9,2.1,1.8,2,3.7-0.3c3.2-3.8,6.5-7.6,10-11.1
			c4.7-4.8,9.7-9.4,14.5-14.1c3-2.9,5.7-6.1,8.6-9.1c2.9-2.9,6.1-5.7,9.1-8.6c1.3-1.3,2.4-2.9,3.8-4.2c6.4-6.5,12.5-13.4,19.6-19.2
			c5.1-4.2,8.6-10,14.1-13.7c1.4-0.9,2.1-2.8,3.2-4.1c3.7-3.9,7.7-7.4,12.2-10.3c2.2-1.4,3.8-3.8,5.7-5.7c2.7,1.3,3.1,2.1,2.6,5.7
			c-1.8,2.2-3.8,4-6.1,5.8c-4.4,3.3-8.2,7.4-12.1,11.3c-1.6,1.6-3.2,3.3-4.8,4.9c-4.8,4.9-10.1,9.4-14.4,14.8
			c-2,2.5-3.8,4.8-6.7,6.3c-1,0.5-1.6,1.8-2.5,2.6c-3.9,4-7.5,8.6-11.7,12.1c-6.1,5-11.7,10.4-17.4,15.7
			c-7.2,6.7-14.5,13.4-21.6,20.1c-2,1.9-3.1,4.7-5.9,6C706.5,483.5,706.5,485.1,706.2,486.1z"/>
		<path class="st1" d="M559.2,390.1c0.2,9.6,0.6,19.1,0.6,28.7c0,8-1.2,16-0.4,23.9c1.2,10.9-0.2,21.8,0.4,32.7
			c0.7,12.2,0.2,24.6,0.2,36.8c0,9.3-0.3,18.6-0.2,28c0,6.9,0.4,13.8,0.6,20.7c0,0.5-0.2,1-0.3,1.6c-0.5,0.4-1,0.9-1.5,1.3
			c-0.3-0.5-0.9-1.1-0.8-1.6c0.3-1.7-0.6-3.1-0.9-4.6c-0.5-2.4,0.1-5,0.1-7.5c0-3.3,0.1-6.6-0.2-9.9c-0.1-1-1.2-2-1.9-2.9
			c-0.2-1.2-0.7-2.4-0.6-3.5c0.2-7.9,0.9-15.9,0.6-23.8c-0.4-11.2,0.6-22.3-0.8-33.5c-0.6-4.8-0.9-9.8-0.1-14.5
			c0.8-4.6,0.1-9.1,0.1-13.6c0.1-7.6,0.8-15.1,1-22.7c0.2-6.5,0.5-13-0.2-19.4c-0.6-5.7,0.1-11.3,0-17
			C556.6,388.7,558,388.9,559.2,390.1z"/>
		<path class="st1" d="M562.6,108.5c8.3,7,13,16.3,16.8,26.2c0.7,1.9,1.3,3.8,1.9,5.7c-0.1,0.4-0.1,0.8-0.2,1.2
			c-0.1,0.4-0.4,0.7-0.6,1c-0.3-0.2-0.7-0.4-0.8-0.7c-0.5-1.5-0.6-3.2-1.4-4.6c-3.4-6.4-6.8-12.9-10.6-19c-1.9-3.1-4.7-5.6-7.1-8.2
			c-5-5.4-10.5-10.4-16.6-14.6c-1.7-1.1-3.5-2-5.3-2.9c-3.3-1.8-6.7-3.4-9.9-5.3c-1.8-1-1.8-1.9,0.3-2.6c1.5,0.5,3,0.9,4.4,1.6
			c3.5,1.9,6.9,4.1,10.5,5.9"/>
		<path class="st1" d="M502.1,1029.1"/>
		<path class="st1" d="M946,615.3c-0.1,3.5-0.1,7-0.2,10.5c0,0.5-0.4,1-0.7,1.6c-0.3-0.6-0.9-1.1-0.9-1.7c0-2.7,0.2-5.3,0.3-8
			C944.9,616.9,945.4,616.1,946,615.3z"/>
		<path class="st1" d="M939.6,247.9c0.8-1.4,0.1-2.4-1-3.2C941.3,245.5,941.4,246,939.6,247.9z"/>
		<path class="st1" d="M517.8,1006.3c-2.5,3.1-3.3,3.1-5-0.2C514.5,1005.4,516.1,1005.2,517.8,1006.3z"/>
		<path class="st1" d="M510.5,1005.6c0,0.4,0,1-0.2,1.1c-1,0.6-1.5,2.9-2.9,1.6c-1.5-1.4,0.7-2,1.5-2.9
			C509.4,1005.5,509.9,1005.6,510.5,1005.6z"/>
		<path class="st1" d="M776.1,643.8c-0.6-1.4-1.2-2.7-1.8-4.1c-0.5-1.6-0.9-3.2-1.4-4.8c2.3,1,4.5,1.2,7.1,1.1
			c7.3-0.4,14.6-0.3,21.8-0.5c9.4-0.2,18.8-0.5,28.2-0.7c0.4,0,0.8-0.1,1.2,0c10.5,1.3,21-0.6,31.5,0.1c6,0.4,12.1-0.4,18.1-0.5
			c2.1-0.1,4.3,0.2,6.4,0.2c2.7,0.1,5.3,0,8,0.1c3.9,0.1,7.8,0.2,11.7,0.3c4.4,0.1,8.9,0.1,13.3,0.3c3.8,0.2,7.5,0.5,11.2,0.8
			c2.1,0.2,4.3,0.4,6.4,0.9c0.7,0.2,1.3,1.1,2,1.7c-0.6,0.5-1.2,1.4-1.8,1.4c-4.4,0.2-8.9,0.3-13.3,0.4c-2.3,0-4.6-0.3-6.8-0.1
			c-8.3,0.7-16.7,0.4-25,0.4c-4.4,0-8.8,0.5-13.2,0.5c-6.7-0.1-13.4-0.5-20.1-0.8c-1.9-0.1-3.8-0.1-5.6-0.1c-2-0.1-4-0.3-6-0.4
			c-1.1,0-2.1,0-3.2,0c-1.5,0-2.9,0-4.4,0.1c-1.7,0.1-3.5,0.1-5.2,0.2c-1.2,0.1-2.5,0.4-3.6,0.1c-5.2-1.3-10.5-0.4-15.7-0.1
			c-0.4,0-0.8,0.4-1.2,0.3c-6.4-2.1-13-0.3-19.5-0.7c-5.9-0.4-11.8-0.5-17.7-0.8c-2-0.1-2.3,0.3-2,2.3
			C775.8,642.2,776,643,776.1,643.8z"/>
		<path class="st1" d="M529.9,1013.6c-0.4,0.6-0.7,1.6-1.2,1.7c-2.2,0.6-1.1,1.5-0.4,2.4c-6.6,0-13.2,0.1-19.8-0.1
			c-13.2-0.4-26.4,0.2-39.7,0.1c-5.4-0.1-10.8-0.6-16.2-0.7c-9.7-0.2-19.4-0.2-29.1-0.2c-4.6,0-9.2,0.1-13.7,0
			c-5.2-0.1-10.5-0.6-15.7-0.6c-12.8,0-25.6,0.3-38.5,0.4c-2.8,0-5.6-0.5-8.5-0.7c-2.5-0.2-5.1-0.4-7.6-0.6
			c-2.1-0.2-4.2-0.6-6.4-0.6c-4-0.1-8.1-0.1-12.1-0.1c1.3-0.3,2.5-0.7,3.8-1c1.4-0.3,2.9-0.3,4.3-0.8c1.9-0.6,0.7-1.5,0-2.3
			c3.2,1.1,6.7-0.5,9.8,1.4c0.5,0.3,1.6-0.1,2.4-0.3c5.6-0.9,11.1-2.1,16.8-2.7c2.6-0.3,4.8-1.2,7.2-2.2c3.4-1.5,6.7-2.8,8.2-6.5
			c0.1-0.2,0.4-0.4,0.6-0.5c5.9-4.1,9.6-9.7,11-16.8c2.9-0.5,3.1,1.6,3.5,3.5c-1.3,2.5-2.5,5-3.9,7.4c-3.4,5.8-7.4,11-13.6,14
			c-0.5,0.2-1,0.5-1.4,0.9c-0.4,0.5-0.9,1.2-0.8,1.6c0.1,0.5,0.9,1.1,1.5,1.1c1.7,0.1,3.5,0,5.3,0c4.2-0.1,8.4,0,12.5-0.4
			c4-0.4,8-1.2,12.1-0.5c2.7,0.4,5.4,0.6,8,0.7c4.3,0.2,8.6,0.4,12.9,0.6c4.8,0.3,9.7,1.2,14.5,0.7c3.3-0.3,6.6-0.8,9.9-0.1
			c2.2,0.5,4.3,0.5,6.6,0.4c6.6-0.3,13.2-0.1,19.8,0.2c5.6,0.2,11.2,0.7,16.9,0.9c3.3,0.1,6.6-0.2,9.9-0.1
			c5.2,0.2,10.4,0.6,15.6,0.8c1.9,0.1,3.7,0,5.6-0.1c1.2-0.3,2.3-0.6,3.5-0.8C525.7,1013.5,527.8,1013.6,529.9,1013.6z"/>
		<path class="st1" d="M876.1,246.3c1.4-0.4,2.9-0.7,4.3-1.1c0.5-0.1,0.9-0.4,1.4-0.7c-0.4-0.3-0.8-0.6-1.2-0.9
			c-0.4-0.3-0.7-0.6-1.1-0.9c0.3-0.2,0.7-0.5,1-0.5c2.4-0.2,4.8-0.3,7.2-0.4c0.3,0,0.9,1.1,0.7,1.3c-0.6,0.8-1.4,1.8,0.2,2
			c1.3,0.2,3.2,1.3,4.1-0.9c0.1-0.4-0.1-1,0.2-1.1c0.7-0.4,1.7-0.4,2.1-1c1.1-1.5-0.4-1.3-1.2-1.5c-0.8-0.1-1.6-0.1-2.4-0.2
			c-0.5-0.1-1-0.4-1.5-0.6c7,0,14,0,21,0.1c5,0.1,9.9,0.4,14.9,0.5c3,0.1,5.9-0.2,8.9-0.2c2.4,0,4.8,0.2,7.2,0.4
			c-1.1,1.4-2.2,2.7-3.4,4.1c-9.2,0.3-18.5,0.5-27.7,0.9C899.3,246.3,887.7,246.7,876.1,246.3z"/>
		<path class="st1" d="M544,92.1c5.7,3,10,6.7,14.2,11.5c1.3,1.5,2.9,3.6,4.5,4.8"/>
		<path class="st1" d="M385.2,979.5c-10.1-4.5-20.2-8.9-30.2-13.4c-3.4-1.5-6.9-3-10.1-4.9c-4-2.4-7.8-5.2-11.7-7.8
			c-2.4-1.5-4.9-2.8-7.2-4.4c-1.9-1.2-3.6-2.6-5.3-4c-3.4-2.9-6.4-6.2-10.5-8.2c-2.1-1-3.6-3.2-5.3-4.9c-0.9-0.8-1.7-1.8-2.7-2.5
			c-2-1.5-3.6-1.4-5.4,0.3c-0.9,0.8-1.7,1.7-2.5,2.6c2.7-6.5,3.9-13.6,8.2-19.5c-0.5,1.4-1,2.8-1.4,4.2c-0.2,0.6-0.1,1.2-0.1,1.9
			c0.6-0.1,1.3,0,1.8-0.2c1.8-1,3.4-2.2,5.2-3.1c6.4-3,13.1-4.9,20-6.5c10.3-2.4,20.1-1.2,29.5,3.6c2.9,1.5,5.8,2.8,8.9,3.9
			c2.6,0.9,4.8,2.3,6.6,4.4c2.6,3.2,5.9,5.8,8.4,9.2c3.7,5.1,6.7,10.8,8.1,16.6c1.6,7,2.9,14.3,1.5,21.7c-0.6,3.3-0.6,6.7-0.8,10.1
			c-0.3,1.7-1,2.6-2.8,1.8C386.7,980,385.9,979.8,385.2,979.5z M333.4,912.7c-3.8-0.6-9.1-0.4-14.1,2.2c-1.8,0.9-3.9,1.3-5.7,2.2
			c-3.8,1.9-7.6,4-11.3,6c-1.4,0.7-1.1,1.7-0.2,2.6c0.7,0.7,1.4,1.3,2.1,1.9c3.8,2.6,7.6,5.2,11.4,7.7c1.3,0.9,2.7,1.7,4.1,2.7
			c2.9,2.1,5.8,4.4,8.7,6.5c2.6,1.9,5.4,3.6,8,5.5c2.7,1.9,5.3,4.1,8.1,5.8c3.3,2.1,6.8,3.9,10.2,5.8c3.3,1.8,6.1,4.6,10.1,4.7
			c0.1,0,0.2,0.1,0.3,0.2c5.5,3.7,11.5,6.4,17.9,8.1c2.8,0.8,3.1,0.7,3.8-2.1c1.1-4.7,0.9-9.4,0.4-14.1c-0.7-5.7-2.2-11.1-4-16.5
			c-0.9-2.6-1.6-5-3.7-7c-1.9-1.8-3.6-4-5.1-6.3c-2-3.2-4.8-5.5-7.9-7.4C357,915.2,346.5,912.3,333.4,912.7z"/>
		<path class="st1" d="M385.2,979.5c0.7,0.3,1.5,0.5,2.1,0.8c1.9,0.9,2.6,0,2.8-1.8c5.6,2.6,11.1,5.3,17.4,6
			c2.5,0.3,4.9,1.2,7.4,1.8c6.7,1.9,13.4,4.2,20.2,5.5c7.4,1.4,14.6,3.5,21.8,5.7c2.4,0.7,5,1,7.5,1.3c4.4,0.6,8.7,1.1,12.9,2.7
			c1.8,0.7,3.9,0.7,5.9,1.1c8.4,1.7,16.9,1.8,25.4,2.6c-0.7,0.9-2.9,1.5-1.5,2.9c1.4,1.3,1.9-1.1,2.9-1.6c0.2-0.1,0.1-0.7,0.2-1.1
			c0.8,0.2,1.6,0.4,2.3,0.6c1.6,3.3,2.4,3.3,5,0.2c1.7,0.2,3.3,0.5,5,0.7c-3.5,1.9-3.5,1.9-0.1,4.2c0.3,0.2,0.6,0.5,0.9,0.8
			c0,0.5,0,0.9-0.1,1.4c-1.2,0.3-2.3,0.6-3.5,0.8c0.6-0.6,1.2-1.3,1.8-1.9c-0.8-0.3-1.6-0.7-2.4-0.8c-3.9-0.5-7.7-0.9-11.6-1.3
			c-2.7-0.2-5.4-0.2-8-0.6c-6.1-0.8-12-2.7-18.3-3.2c-5.2-0.4-10.3-1.8-15.5-3c-9.1-2-18.1-4-27.1-6.2c-5.7-1.4-11.4-3.1-17.1-4.7
			c-1.6-0.4-3-1.2-4.6-1.5c-8.5-1.5-16.5-4.6-24.5-7.6c-2.8-1-2.8-1.1-3.6,1.8c-0.1,0.3-0.2,0.5-0.3,0.7c-0.4-2-0.6-4.1-3.5-3.5
			C385.2,981.7,385.2,980.6,385.2,979.5z"/>
		<path class="st1" d="M131,1002.3c-0.6,3-1.1,6-1.7,9c-3.1-0.7-6.3-1.2-9.4-2c-6.2-1.7-12.4-3.5-18.6-5.4c-0.8-0.3-1.6-0.9-2.3-1.4
			c1.6-1.8,1.6-2.3-0.1-2.4c-1.5-0.1-3.1,0.5-4.6,0.7c-0.5-0.2-1.1-0.5-1.6-0.7c-0.6-1.1-0.8-2.5-1.7-3.1c-3.7-2.6-7.6-5-11.4-7.5
			c-0.3-0.3-0.5-0.5-0.8-0.8c1.2-0.3,2.3-0.7,3.5-1c5.3,2.3,10.6,4.6,15.9,6.9c7.1,3.1,14.6,4.7,22.3,5.3
			C124,1000.2,127.6,1000.7,131,1002.3z"/>
		<path class="st1" d="M82.2,987.6c-1.2,0.3-2.3,0.7-3.5,1c-5.4-2.1-9.2-6.3-13.2-10.3c-1.4-1.4-2.8-2.9-4.1-4.5
			c-0.6-0.7-0.8-1.7-1.2-2.6c0.9,0.5,1.8,0.9,2.6,1.5c0.9,0.8,1.6,1.8,2.6,2.5c3.4,2.8,7,5.3,10.2,8.4
			C77.6,985.6,79.6,987,82.2,987.6z"/>
		<path class="st1" d="M71.5,822.6c0.6,0.3,1.2,0.6,1.7,0.9c-0.7,0.6-1.4,1.3-2.2,1.8c-5.3,3.4-9.1,8.2-13,13
			c-1.2,1.5-2.9,2.6-4.4,3.9c0,0,0,0,0,0c0.9-1.6,1.4-3.5,2.7-4.8C61.2,832.1,65.2,826.1,71.5,822.6z"/>
		<path class="st1" d="M94.3,1000.8c1.5-0.3,3.1-0.8,4.6-0.7c1.8,0.1,1.8,0.6,0.1,2.4C97.4,1001.9,95.9,1001.3,94.3,1000.8z"/>
		<path class="st1" d="M164.4,660.9c0.2,4.6,0.4,9.2,0.6,13.9c-0.2-2.1-0.6-4.2-0.7-6.3C164.2,665.9,164.4,663.4,164.4,660.9z"/>
		<path class="st1" d="M48.1,850.3c0.2,1.8-0.6,3.1-2.1,4c-0.1,0-0.2-0.1-0.3-0.1C46.5,852.9,47.3,851.6,48.1,850.3L48.1,850.3z"/>
		<path class="st1" d="M38.2,875c-0.2,0.2-0.3,0.4-0.5,0.6c-0.1-0.3-0.3-0.6-0.4-0.9c0-0.1,0.4-0.3,0.6-0.4
			C38,874.5,38.1,874.7,38.2,875z"/>
		<path class="st1" d="M325.1,855.9c0.3,0.8,0.8,1.7,1.7,0.8c2-1.8,3.8-3.8,5.6-5.7c2.7-3,5.3-6.1,8-9.1c4.3-4.8,8.6-9.6,13-14.4
			c0.7-0.8,1.4-1.6,2.2-2.4c4.9-5,9.9-9.9,14.8-15c3.9-4.1,7.4-8.4,11.2-12.6c2.1-2.3,4.4-4.4,6.7-6.5c3.2-2.9,6.3-5.8,8.6-9.6
			c2.9-4.9,8.1-7.4,12-11.3c3.7-3.7,7.3-7.6,10.9-11.4c0.9-1,1.8-2,2.9-2.8c6.5-4.3,11.4-10.3,16.7-15.9c3.2-3.4,6.9-6.4,10.3-9.6
			c6.1-5.8,12-11.6,18.1-17.4c2.2-2.1,4.6-4.2,6.8-6.4c4.8-4.7,9.3-9.9,14.5-14c3.7-2.9,6.7-6.5,10.2-9.6c3.9-3.3,7.6-6.8,11.2-10.4
			c0.8-0.8,1.2-2,1.8-3.1c-1.2-0.5-2.3-1.2-3.6-1.4c-1.9-0.3-3.8-0.2-5.7-0.3c2.6-1.4,5.2-0.7,7.9-0.3c2.8,0.4,5.6,0.7,8.4,1.1
			c-4.3,4.1-8.7,8.1-12.9,12.2c-5.5,5.4-10.9,10.8-16.3,16.2c-4.5,4.6-9,9.3-13.5,13.8c-2.9,2.9-5.9,5.5-8.8,8.3
			c-1.5,1.4-2.9,2.8-4.4,4.1c-3.8,3.5-7.6,6.8-11.2,10.4c-2.6,2.5-4.9,5.3-7.4,7.9c-1.8,1.8-3.7,3.6-5.5,5.4
			c-3.2,3.2-6.4,6.5-9.7,9.7c-4.7,4.6-9.4,9.2-14.2,13.8c-4.4,4.3-9,8.6-13.3,13.1c-6.2,6.4-12.1,13.1-18.2,19.5
			c-2.8,2.9-5.9,5.5-8.7,8.4c-2.6,2.6-5,5.3-7.6,7.8c-2.4,2.4-5,4.6-7.3,7c-4.1,4.3-8,8.7-12,13.1c-1.9,2.1-3.9,4.1-5.8,6.2
			c-5.4,6-10.8,12-16.3,18c-1.1,1.2-2.3,2.3-3.4,3.4C322.9,863.4,323.1,859.5,325.1,855.9z"/>
		<path class="st1" d="M819.2,353.6c-4-1.8-6.6-5.3-9.9-8c1-1.7,2.3-2.2,3.8-0.7c1.1,1.1,2.2,2.3,3.1,3.6
			C817.3,350.2,818.2,351.9,819.2,353.6z"/>
		<path class="st1" d="M807.7,377.9c0.9-0.8,1.7-1.6,2.6-2.4c0.8,1.6,1.6,3.2,2.4,4.8c-0.8,1.1-1.6,2.2-2.4,3.3
			C810.8,380,810.5,379.2,807.7,377.9z"/>
		<path class="st1" d="M173.3,257.6c-2,0.8-1.6,2.6-1.8,4.2c-0.5-3-1-6.1-1.5-9.1c0-0.2,0.5-0.5,0.8-0.8
			C172.8,253.2,172.9,255.5,173.3,257.6z"/>
		<path class="st1" d="M170,622.7c0,0.8,0,1.6,0,2.4c-0.8,0.3-1.6,0.5-2.5,0.8c-0.9-1.6-0.5-2.9,0.8-4.1
			C168.9,622.1,169.4,622.4,170,622.7z"/>
		<path class="st1" d="M177.3,253.5c-0.6,0.3-1.2,0.6-1.8,1c-0.2-0.1-0.6-0.1-0.7-0.3c-0.3-0.5-0.6-1-0.9-1.6
			c0.6-0.1,1.3-0.3,1.8-0.2C176.2,252.6,176.8,253.2,177.3,253.5z"/>
		<path class="st1" d="M172.3,915.3c-0.1,0.2-0.2,0.4-0.2,0.6c0,0.1,0.1,0.2,0.2,0.3c0.7,0.9,1.4,1.8,2.2,2.6
			c1.5,1.5,1.4,2.1-0.4,3.2c-0.8,0.5-2,1.3-2,1.9c0.1,1.9-0.1,4.1,1.9,5.4c-0.5,0.8-0.9,1.5-1.4,2.3c-0.9,0-1.7,0-2.6,0
			c-0.1-0.7-0.3-1.3-0.2-2c0.6-4.1,0.5-8-0.4-12.1c-0.6-2.4-0.3-5.1-0.2-7.6c0-2.6,0.1-5.1,0.3-7.7c0.1-2,0.4-4,0.7-6
			c0.1-1.3,0.4-2.7,0.4-4c-0.2-6.7-0.6-13.4-0.8-20.1c-0.2-5-0.8-10.1-0.1-15.1c0.7-4.9,1.6-9.7,1-14.8c-0.4-3.5-0.2-7.2-0.2-10.8
			c0-2,0.2-4,0.2-6c-0.1-2.4-0.3-4.8-0.4-7.2c0-1.9,0.1-3.8,0.1-5.6c0.5,2.1,1.3,4.1,1.5,6.2c0.3,4,0.3,8,1.4,11.9
			c0.4,1.5-0.2,3.2-0.1,4.8c1,8.9,0.2,17.7,0,26.6c-0.1,3.1-0.7,6.1,0.6,9.1c0.5,1.2-0.2,2.9-0.2,4.4c0.1,8.2,0.2,16.3,0.3,24.5
			c0,1.2-0.3,2.4-0.5,3.5c-0.4,2-0.3,4.2-2.2,5.7c-0.5,0.4-0.3,2-0.1,2.9C171.1,913.5,171.8,914.3,172.3,915.3z"/>
		<path class="st1" d="M198.4,814.7c5.1,2.7,9,6.9,13.1,10.9c1.5,1.5,3.1,2.8,4.7,4.2c-0.5,1.4-0.3,2.5,0.9,3.5c2,1.7,3,3.9,3.1,6.6
			c-6.4-7.5-13.3-14.4-22.2-19c-1.2-0.6-2.2-1.6-3.3-2.3c-0.7-0.4-1.7-0.6-2.5-0.8c-1-0.3-2.2-0.3-2.9-0.9
			c-3.7-3.6-12.8-7.1-17.8-6.7c-0.3,0-0.5,0.2-0.8,0.3c-0.1-0.4-0.3-0.8-0.3-1.2c0-0.6,0.1-1.2,0.1-1.9c0.4,0.2,0.9,0.5,1.3,0.6
			c1.9,0.7,3.7,1.4,5.6,2c0.5,0.2,1.3,0.2,1.5,0c2.8-3,5-0.5,7.4,0.7c0.8,0.4,1.6,1.1,2.5,1.2c2.4,0.3,3.8,1.5,4.9,3.6
			c0.4,0.8,1.6,1.6,2.4,1.7C197.9,817.4,198.2,816,198.4,814.7z"/>
		<path class="st1" d="M167.5,625.9c0.8-0.3,1.6-0.5,2.5-0.8c0,1.6,0,3.3,0,4.9c-0.4,0.8-0.7,1.7-1.1,2.5c-0.7,1.2-1.4,0.8-2.1,0
			c1.3-1.1,2-2.2,0-3.3C167,628.1,167.3,627,167.5,625.9z"/>
		<path class="st1" d="M166.7,629.2c2,1.1,1.3,2.2,0,3.3C166.7,631.3,166.7,630.2,166.7,629.2z"/>
		<path class="st1" d="M184.6,643c4.9,0,9.7,0,14.6,0c-0.5,0.8-1.1,1.7-1.6,2.5c-3.9,0.2-7.9,0.5-11.8,0.6c-1.3,0-2.5-0.5-3.8-0.7
			c0.8,0,1.6,0,2.4-0.2c1.3-0.3,2.6-0.7,3.9-1C187,643.9,185.8,643.5,184.6,643z"/>
		<path class="st1" d="M197.6,645.6c0.5-0.8,1.1-1.7,1.6-2.5c4-0.2,8.1-0.4,12.1-0.5c4.2-0.2,8.3-0.3,12.5-0.4
			c0.8,0,1.6-0.1,2.4-0.1c6-0.1,12.1-0.3,18.1-0.4c4.4-0.1,8.9,0.3,13.3-0.1c3.1-0.3,6.1-0.7,9.2-0.4c1.2,0.1,2.4,0,3.6,0.2
			c6.5,1.1,13.1,0.6,19.7,0.3c8.3-0.4,16.7,0.1,25-0.5c6-0.5,11.9,0.3,17.8,0.4c2.7,0,5.4,0.3,8.1-0.1c4-0.5,7.8-0.1,11.6,1
			c1.1,0.3,2.3,0,3.5-0.1c-0.6,1.9-1.2,3.7-1.9,5.6c0.1-1.3-0.3-2.1-1.8-1.9c-5.2,0.4-10.4,0.9-15.6,1.1c-3.5,0.1-7-0.2-10.5-0.2
			c-8.9-0.2-17.8-0.3-26.7-0.5c-6.5-0.2-12.9-0.5-19.4-0.8c-1.2,0-2.4-0.1-3.6,0c-6.6,0.6-13.1,0.9-19.7,0.2
			c-3.8-0.4-7.8,0.4-11.7,0.5c-4.3,0.1-8.6,0.1-12.9,0.2c-1.1,0-2.1,0.3-3.2,0.3c-1.9,0.1-3.8,0.3-5.6,0.2c-4-0.1-8.1-0.4-12.1-0.6
			c-2-0.1-4-0.4-6-0.5c-1.2,0-2.4,0.3-3.6,0.3C200.4,646,199,645.7,197.6,645.6z"/>
		<path class="st1" d="M456.1,521.1c-1,4.7-1,4.6,2.6,8.2c4.1,4.1,8.1,8.2,12.2,12.3c2.5,2.5,4.9,5.1,7.7,7.1c3,2.2,5.5,4.7,8,7.3
			c6.1,6.2,12.5,12.3,18.6,18.5c2.9,3,5.6,6.1,8.4,9.2c0.1,0.4,0.2,0.8,0.2,1.2c0,0.5-0.3,1-0.4,1.4c-0.4-0.1-0.8-0.1-1.1-0.3
			c-2.7-2.4-5.4-4.8-8.1-7.2c-1.2-1.1-2.5-2-3.7-3c-1.2-1-2.5-2-3.2-3.3c-0.9-1.4-2-1.7-3.4-1.7c-1.2-1-2.5-2-3.6-3.1
			c-2.3-2.3-4.5-4.6-6.7-6.9c-1.2-1.2-2.4-2.5-3.6-3.8c-4.3-4.4-8.7-8.7-13-13.1c-4.2-4.2-8.3-8.4-12.5-12.5c-0.6-0.6-1.6-0.7-2.5-1
			c0.5-1.1,0.9-2.3,1.4-3.4C454.4,524.9,455.2,523,456.1,521.1z"/>
		<path class="st1" d="M559.2,390.1c-1.2-1.3-2.6-1.4-4.1-0.8c0.3-8.5,0.9-17,0.6-25.5c-0.2-4.4-0.6-9.2-3.5-13
			c-1.6-2.1-1.1-4.6-1.1-7c2.5,2.9,3.8,6.5,4.7,10.1c0.9,3.4,1.8,6.7,4.2,9.5c0.9,1,1,2.7,1.5,4.1c-1-0.5-2.3-1.7-2.4,0.7
			c-0.1,2.9-0.1,5.8-0.1,8.8c-0.1,2.8-0.2,5.6-0.2,8.4C558.9,387,559.1,388.6,559.2,390.1z"/>
		<path class="st1" d="M171.5,572.9c-0.1,0.7-0.1,1.8-0.4,1.9c-3.7,0.7-2.4,3.7-2.7,5.9c-0.1,0.6-0.1,1.4,0.1,2
			c1.3,3.4-0.2,6.7-0.3,10c-0.1,3.7-0.7,7.4-0.8,11.1c-0.1,1.4,0.5,2.9,0.8,4.3c0.1,0.8,0.4,1.6,0.3,2.3c-0.2,3-0.7,6.1-0.9,9.1
			c0,0.7,0.5,1.5,0.8,2.3c-1.3,1.2-1.7,2.5-0.8,4.1c-0.3,1.1-0.5,2.2-0.8,3.3c0,1.1,0,2.2,0,3.3c0.7,0.9,1.4,1.2,2.1,0
			c0.4-0.8,0.8-1.6,1.1-2.5c0,3.1-0.1,6.1,0,9.2c0.1,1.3,0.7,2.5,1,3.7c-1.3,0-1.9-0.5-2.1-1.9c0-0.4-0.8-0.8-1.2-1.2
			c-0.5,0.5-1.1,1-1.4,1.7c-0.2,0.4,0.2,1,0.2,1.6c-0.1,4.3-0.2,8.7-0.5,13c0,0.6-0.7,1.1-1.1,1.7c0-5.5,0-11.1,0.1-16.6
			c0.2-7.8,0.5-15.5,0.7-23.3c0.1-4.3-0.2-8.6-0.1-12.9c0.1-4.7,0.7-9.4,0.8-14.1c0.1-4.4-0.1-8.8,0-13.3c0.2-8.2,0.5-16.4,0.8-24.5
			c0-1.4,0.2-2.7,0.1-4.1c-0.2-14.5-0.3-28.9-0.6-43.4c-0.1-4.4-0.7-8.9-0.8-13.3c-0.1-6.7,0-13.4-0.1-20.1c0-1.7-0.4-3.5-0.7-5.2
			c0-0.3-0.2-0.6-0.2-0.8c1.6-6.5-2.2-13.2,0.5-19.8c0.7-1.6,0.3-3.8,0-5.6c-0.5-2.2-1.6-4.2,0-6.5c0.5-0.7,0-2.5-0.6-3.4
			c-2.2-3.3-1.6-6.5-0.1-9.6c0.9-1.8,1-3.6,0.9-5.5c-0.7-7.4-1.2-14.7-0.2-22.1c0.4-3.4,0.3-6.8,0.6-10.3c0.2-3.4,0.9-6.7,0.9-10
			c-0.1-7.9-0.5-15.9-0.7-23.8c0-1.1-0.4-2.2-0.2-3.2c1.2-9.5,0.6-19.1,0.6-28.6c0-4.5,0.5-9.1,0.7-13.6c0.1-1.5-0.4-2.9-0.4-4.4
			c0.1-6.1,0.4-12.1,0.5-18.2c0.1-3.6,0.1-7.3,0.1-10.9c0.1-4.3,0.3-8.6-0.7-12.9c-0.5-2.1-0.5-4.6,0-6.7c0.3-1.5,1.9-2.7,2.9-4.1
			c0.3,1.7,0.6,3.4,0.9,5.1c-0.3,0.3-0.8,0.6-0.8,0.8c0.4,3.1,1,6.1,1.5,9.1c0.1,0.8,0.4,1.6,0.4,2.4c0,5.8-0.2,11.6-0.1,17.4
			c0,5.4,0.3,10.8,0.3,16.2c0,9.3-0.1,18.6-0.3,27.9c0,2.1-0.5,4.3-0.7,6.4c-0.1,1.2-0.1,2.4,0.1,3.6c1,6,1.1,12.1,0.2,18.1
			c-0.3,2-0.5,4-0.4,6.1c0.1,4.6,0.6,9.1,0.6,13.7c0,13.3-0.1,26.7-0.2,40c0,1.9-0.2,3.7-0.3,5.6c0.5,0.9,1,1.8,1.5,2.7
			c0.5,2.4,1.7,4.9-0.8,7c-0.3,0.3-0.4,1-0.4,1.5c0,3.9,0,7.8,0,11.7c0.1,3.1,0.3,6.2,0.3,9.3c0,2.3-0.2,4.5-0.2,6.8
			c0,6.1,0.6,12.2,0.1,18.2c-0.6,7.3-0.6,14.7-0.8,22c-0.2,9.2-0.1,18.3-0.2,27.5c0,1.7-0.4,3.5-0.4,5.2c-0.1,4.6,0.1,9.2,0,13.7
			c-0.2,8.5-0.6,16.9-0.8,25.4c0,0.8,0.1,1.6,0.2,2.4C169.9,574.3,170.7,573.4,171.5,572.9z"/>
		<path class="st1" d="M162.9,869.4c0.2-7.4,0.4-14.8,0.6-22.2c0-0.8,0.2-1.6,0.3-2.4c0-0.2,0.4-0.4,0.6-0.4c0.2,0,0.5,0.3,0.5,0.5
			c0.1,0.9,0.2,1.9,0.2,2.8c0,8.6,0.1,17.2,0,25.8c-0.1,8.1-0.5,16.2-0.8,24.2c0,0.5-0.5,1.1-0.8,1.6c-0.3-0.6-0.7-1.1-0.7-1.7
			c0.1-6.6,0.2-13.2,0.3-19.8c0-2.8,0-5.7,0-8.5C163,869.4,162.9,869.4,162.9,869.4z"/>
		<path class="st1" d="M165,657.6c0.4-0.5,1-1.1,1.1-1.7c0.2-4.3,0.3-8.7,0.5-13c0-0.5-0.4-1.2-0.2-1.6c0.3-0.6,0.9-1.1,1.4-1.7
			c0.4,0.4,1.2,0.8,1.2,1.2c0.1,1.3,0.8,1.9,2.1,1.9c4.5-0.7,9.1-1.1,13.6,0.2c1.2,0.4,2.4,0.9,3.6,1.3c-1.3,0.3-2.6,0.7-3.9,1
			c-0.8,0.2-1.6,0.1-2.4,0.2c-3.4,0.3-6.9,0.6-10.3,0.8c-1.5,0.1-2.1,0.5-2.1,2.2c0.1,3-0.2,6.1-0.3,9.2c0,0.9-0.2,1.9-0.1,2.8
			c0.3,3.3,0.6,6.7,1,10c0.2,2.2,0.4,4.5,0.6,6.7c0,0.3,0,0.5,0.1,0.8c-0.6,0.3-1.1,0.6-1.7,0.9l0,0c0-1.2-0.3-2.8-1.7-2.4
			c-2,0.6-1.5-1.3-2.4-1.7c0,0,0,0,0,0c-0.2-4.6-0.4-9.2-0.6-13.9C164.6,659.8,164.8,658.7,165,657.6z"/>
		<path class="st1" d="M165,674.7c0.9,0.4,0.4,2.3,2.4,1.7c1.4-0.4,1.7,1.2,1.7,2.4c-2.7,0.2-3,0.5-2.8,2.9c0.1,2.1,0.2,4.3,0.3,6.4
			c0.3,6.1,0.6,12.2,0.8,18.4c-2.7,0.5-1.9,3.3-3.1,4.8c-0.2-3.7-0.5-7.5-0.6-11.2c0-0.8-0.1-1.7,0.2-2.4c0.9-2,0.3-3.8,0.1-5.8
			c-0.3-3.1,0.1-6.4,0.3-9.6C164.5,679.7,164.8,677.2,165,674.7z"/>
		<path class="st1" d="M35.8,917.8c0.9,4.3,1.8,8.6,2.8,12.9c0.2,0.9,0.8,1.8,0.9,2.7c0.1,0.9-0.1,1.9-0.2,2.9
			c-0.6-0.8-1.6-1.5-1.7-2.3c-1.1-5.4-2.1-10.8-3.1-16.2C34.8,917.8,35.3,917.8,35.8,917.8z"/>
		<path class="st1" d="M79.5,989.4c3.8,2.5,7.7,4.9,11.4,7.5c0.9,0.6,1.1,2,1.7,3.1C88,996.8,82.8,994.3,79.5,989.4z"/>
		<path class="st1" d="M56.2,967.3c0.4,0.1,0.8,0.1,1.1,0.3c0.3,0.3,0.5,0.7,0.8,1.1c0,0-0.2,0.3-0.2,0.3c-0.4-0.2-0.9-0.3-1.2-0.7
			C56.4,968.1,56.3,967.7,56.2,967.3C56.2,967.3,56.2,967.3,56.2,967.3z"/>
		<path class="st1" d="M259.4,888.5c-1.4-1.8-2.7-3.6-4.2-5.3c-3.1-3.5-6.3-6.9-9.4-10.3c-0.4-1.3-0.8-2.6-1.1-3.9
			c0.4-0.6,0.7-1.3,1.1-1.9c4.2,5.1,8.5,10.1,12.6,15.3c1.5,1.9,2.8,1.8,4.3,0.4C261.5,884.7,260.4,886.6,259.4,888.5z"/>
		<path class="st1" d="M162.7,913c0-2.6,0-5.1,0-7.7c0-0.6,0.4-1.2,0.7-1.8c0.4,0.6,0.9,1.2,1.2,1.8c0.2,0.6,0.2,1.3,0.2,2
			c0.1,3.9,0.2,7.8,0.3,11.7c0,1.3,0,2.7-0.1,4c0,0.4-0.6,0.8-0.9,1.1c-0.3-0.4-0.9-0.7-0.9-1.1c-0.2-2.7-0.3-5.4-0.4-8.1
			C162.6,914.3,162.6,913.6,162.7,913C162.7,913,162.7,913,162.7,913z"/>
		<path class="st1" d="M169.8,689.4c-0.3-3.5-0.5-7.1-0.8-10.6c0.6-0.3,1.1-0.6,1.7-0.9c0.3,1.6,0.7,3.1,1,4.7
			c-1.4,0.7-1.8,1.8-1.8,3.2C170,687.1,169.9,688.3,169.8,689.4z"/>
		<path class="st1" d="M170.1,670.4c0.2,2.2,0.4,4.5,0.6,6.7C170.5,674.9,170.3,672.7,170.1,670.4z"/>
		<path class="st1" d="M172.5,947.1c-1.3-2.9-1.9-5.8-1.3-9c0.4-1.9,1-3.3,2.7-4.1C173.5,938.4,173,942.7,172.5,947.1z"/>
		<path class="st1" d="M1086.6,968.1c0.7,0,1.5-0.1,2.2,0.1c0.7,0.1,1.2,0.5,1.9,0.8c-0.7,1.1-1.3,2.3-2.1,3.4
			c-2.4,3.3-4.4,6.9-7.3,9.6c-6.4,6-13.3,11.5-19.9,17.3c-1.9,1.7-1.7,2.4,1,3.8c-1.8,0.9-3.6,1.8-5.4,2.6c-5,2.2-10,4.6-15.2,6.4
			c-4.1,1.4-8.5,2.3-12.9,3.1c-5.2,0.9-10.4,1.3-15.6,1.8c-1.8,0.2-3.7-0.1-5.6-0.1c0.9-0.7,2-1.4,2.7-2.2c1.4-1.7,1-2.9-1.2-3.3
			c-1-0.2-2.1-0.2-3.2-0.2c0.9-0.2,1.8-0.6,2.7-0.7c6.4-0.5,12.7-1.3,18.9-2.8c3.4-0.8,6.8-1.9,9.8-3.5c1.8-1,3.6-1.7,5.6-1.9
			c1.9-0.2,3.5-0.7,5.2-1.8c1.7-1.1,3.9-1.6,6-2.2c2.5-0.7,4.9-1.4,6.2-4.1c0.3-0.7,1-1.2,1.6-1.6c1.6-1.2,3.2-2.3,4.7-3.6
			c4.2-3.8,8.4-7.5,12.5-11.4c1.9-1.8,3.5-4,5.1-6.1C1085.2,970.4,1085.8,969.2,1086.6,968.1z"/>
		<path class="st1" d="M32.9,892.7c1-4.3,1.9-8.5,2.9-12.7c0.1-0.3,0.5-0.5,0.7-0.8c0.2,0.3,0.5,0.7,0.5,1
			c-0.6,4.3-1.2,8.5-1.8,12.7c-0.1,0.6-0.7,1.1-1,1.6C33.8,894,33.4,893.4,32.9,892.7z"/>
		<path class="st1" d="M53.8,963.2c-1-0.4-2.4-0.5-2.8-1.2c-1.7-2.7-3-5.6-4.5-8.5c-0.1-0.3,0.1-0.7,0.1-1.1
			c0.4,0.1,0.9,0.1,1.1,0.3C49.8,956.2,51.7,959.7,53.8,963.2L53.8,963.2z"/>
		<path class="st1" d="M34.4,901.1c-0.1,1.2-0.1,1.8-0.2,2.5c0,0.2-0.3,0.4-0.4,0.6c-0.3-0.2-0.8-0.4-0.8-0.7
			c-0.2-0.6-0.3-1.3-0.2-2c0.2-1,0.6-1.9,0.8-2.8C33.9,899.7,34.2,900.6,34.4,901.1z"/>
		<path class="st1" d="M53.7,963.3c0.8,1.4,2.9,2,2.4,4.1l0,0C54.7,966.3,53.7,965.1,53.7,963.3C53.8,963.2,53.7,963.3,53.7,963.3z"
			/>
		<path class="st1" d="M169.9,931.6c0.9,0,1.7,0,2.6,0c0.5,0.3,1,0.6,1.5,0.8c0,0.5,0,1.1,0,1.6c-1.8,0.8-2.4,2.2-2.7,4.1
			c-0.6,3.2,0,6.1,1.3,9c0,1.1-0.1,2.1-0.1,3.2c-1,0.9-1.3,2-0.7,3.3c-0.1,0.2-0.1,0.4-0.2,0.7c-1.6,1-1.7,2.3-1.4,4.1
			c0.6,2.9,0.9,5.9,1.3,8.9c0,2.9,0,5.7,0,8.6c0,0.5,0,1.1-0.1,1.6c-0.5,2.9-1,5.7-1.5,8.6c-0.3-2.2-0.7-4.5-0.9-6.7
			c-0.2-2.8-0.3-5.6-0.4-8.5c0-2.7,0.2-5.4,0.2-8c0-2.7-0.2-5.4-0.3-8c0-0.5-0.1-1.1,0-1.6c1.8-4.5,0.8-9.3,1-13.9
			C169.6,936.6,169.8,934.1,169.9,931.6z"/>
		<path class="st1" d="M165.3,934.7c-0.2,1.4-0.3,2.7-0.5,4c-0.1,0.4-0.7,0.7-1.1,1c-0.2-0.4-0.6-0.8-0.6-1.2c0-3.2,0-6.4,0-9.6
			c0-0.3,0.4-0.6,0.6-0.9c0.2,0.3,0.6,0.6,0.7,0.9C164.7,930.7,165,932.7,165.3,934.7z"/>
		<path class="st1" d="M173.9,929.2c0.3,0,0.5,0,0.8,0c-0.2,1-0.5,2.1-0.7,3.1c-0.5-0.3-1-0.6-1.5-0.8
			C173,930.8,173.4,930,173.9,929.2z"/>
		<path class="st1" d="M772.1,947.8c2.4-1.9,4.9-3.8,7.3-5.7c0.8,0.7,2.4,1.2,0.5,2.6C777.6,946.5,774.9,947.3,772.1,947.8z"/>
		<path class="st1" d="M1062.4,1003.2c-2.7-1.4-3-2.2-1-3.8c6.7-5.8,13.5-11.3,19.9-17.3c2.9-2.7,4.9-6.4,7.3-9.6
			c0.8-1.1,1.4-2.3,2.1-3.4c1.8-1.1,2.8-2.7,3.5-4.7c0.9-2.5,2.1-4.9,3.2-7.4c0.5-1,1-2,2.4-1.5c-0.1,5.4-3.3,9.6-5.8,14
			c-1.7,2.9-3.3,5.9-5.4,8.5c-2.5,3.2-5.4,6-8.1,9c-1.1,1.2-2.1,2.4-3.3,3.6c-3.7,3.7-7.4,7.5-11.2,11.1
			C1065.1,1002.4,1063.6,1002.6,1062.4,1003.2z"/>
		<g>
			<rect x="3.2" y="703.5" class="st2" width="3" height="0"/>
		</g>
		<path d="M917.8,961.4C892,905.5,578.4,195.5,578.4,195.5s-20.7,44.5-67.3,50.7L242,931.3c0,0-31,77.6-114.9,71.9v6.8l202.8,5.2
			c0,0-50.7-7.2-43.5-66.2l112.8-279.4h294.6c0,0,120.4,266,125.6,276.3c5.2,10.3,5.9,55.9-40,69.3l229.4,4.1v-8.2
			C1008.9,1011.1,943.7,1017.2,917.8,961.4z M408.6,640.5l125.3-329.1l149,329.1H408.6z"/>
		<g class="st3">
			<path class="st4" d="M149.2,1025.3v-28.2c23-7.5,40.8-18,53.3-31.4c12.5-13.4,23.4-34.3,32.6-62.8L525.7,91.5l102.9-12.6
				l269.8,881.6l75.9,23.9v30.5c-40.2,16.5-88.5,24.8-144.9,24.8c-57.3,0-108.4-5-153.1-14.9v-27.8c47.7-10.1,71.3-30,70.9-59.7
				c0-6.3-1.1-13-3.1-20.1l-49.6-182.9H398.9l-68.4,230l87.2,18.9v31.7c-53.1,16.5-107.1,24.8-161.9,24.8
				C219.9,1039.7,184.4,1034.9,149.2,1025.3z M422.8,656H675L559.6,232.8h-1.9L422.8,656z"/>
		</g>
	</g>
	<g>
	</g>
	<g>
	</g>
	<g>
	</g>
	<g>
	</g>
	<g>
	</g>
	<g>
	</g>
</g>
</svg>
