<?xml version="1.0" encoding="UTF-8" standalone="no"?>
<!-- Copyright 2000-2023 JetBrains s.r.o. and contributors. Use of this source code is governed by the Apache 2.0 license. -->

<svg
   width="16"
   height="16"
   viewBox="0 0 16 16"
   fill="none"
   version="1.1"
   id="svg1"
   sodipodi:docname="alef_testinitialisatie.svg"
   inkscape:export-filename="alef_testinitialidatie.png"
   inkscape:export-xdpi="96"
   inkscape:export-ydpi="96"
   inkscape:version="1.3.2 (091e20e, 2023-11-25, custom)"
   xmlns:inkscape="http://www.inkscape.org/namespaces/inkscape"
   xmlns:sodipodi="http://sodipodi.sourceforge.net/DTD/sodipodi-0.dtd"
   xmlns="http://www.w3.org/2000/svg"
   xmlns:svg="http://www.w3.org/2000/svg">
  <defs
     id="defs1" />
  <sodipodi:namedview
     id="namedview1"
     pagecolor="#ffffff"
     bordercolor="#000000"
     borderopacity="0.25"
     inkscape:showpageshadow="2"
     inkscape:pageopacity="0.0"
     inkscape:pagecheckerboard="0"
     inkscape:deskcolor="#d1d1d1"
     inkscape:zoom="51.3125"
     inkscape:cx="7.9902558"
     inkscape:cy="8.2533496"
     inkscape:window-width="1920"
     inkscape:window-height="1017"
     inkscape:window-x="-8"
     inkscape:window-y="-8"
     inkscape:window-maximized="1"
     inkscape:current-layer="svg1"
     showgrid="false" />
  <path
     fill-rule="evenodd"
     clip-rule="evenodd"
     d="m 14.760783,7.6750142 c 0.121821,0.2345565 0.121821,0.5945215 0,0.8290781 l -2.368052,4.5584727 c -0.214319,0.412539 -0.604126,0.145012 -0.604126,-0.414586 l 2.3e-5,-9.1168211 c 0,-0.5595876 0.389842,-0.8270737 0.604161,-0.4145441 z"
     fill="#f2fcf3"
     stroke="#208a3c"
     stroke-linecap="round"
     id="path2"
     style="stroke-width:0.769859" />
  <path
     fill-rule="evenodd"
     clip-rule="evenodd"
     d="M 1.1235181,8.5197172 C 1.0146314,8.2846998 1.0144082,7.924192 1.1229992,7.6886408 L 3.2363271,3.1046161 C 3.4279505,2.6889701 3.7778288,2.957095 3.7778288,3.5195948 l 3.11e-5,9.1455362 c 5.2e-6,0.561853 -0.3490998,0.830307 -0.5409827,0.41618 z"
     fill="#fff7f7"
     stroke="#db3b4b"
     stroke-linecap="round"
     id="path1-7"
     style="stroke-width:0.729899" />
  <path
     fill-rule="evenodd"
     clip-rule="evenodd"
     d="m 9.957369,4.5152253 v 1 h -1.5 v 4.9999997 h 1.5 v 1 h -1.5 -1 -1.5 v -1 h 1.5 V 5.5152253 h -1.5 v -1 h 1.5 1 z"
     fill="#3574f0"
     id="path1-4"
     style="stroke:none;stroke-width:3.1;stroke-linejoin:round;stroke-dasharray:none;stroke-opacity:1;paint-order:stroke fill markers;stroke-linecap:round;fill:#6c707e;fill-opacity:1" />
</svg>
