<?xml version="1.0" encoding="UTF-8" standalone="no"?>
<!-- Copyright 2000-2023 JetBrains s.r.o. and contributors. Use of this source code is governed by the Apache 2.0 license. -->

<svg
   width="16"
   height="16"
   viewBox="0 0 16 16"
   fill="none"
   version="1.1"
   id="svg3"
   sodipodi:docname="alef_uitvoerbericht_dark.svg"
   inkscape:export-filename="alef_uitvoerbericht_dark.png"
   inkscape:export-xdpi="96"
   inkscape:export-ydpi="96"
   inkscape:version="1.3.2 (091e20e, 2023-11-25, custom)"
   xmlns:inkscape="http://www.inkscape.org/namespaces/inkscape"
   xmlns:sodipodi="http://sodipodi.sourceforge.net/DTD/sodipodi-0.dtd"
   xmlns="http://www.w3.org/2000/svg"
   xmlns:svg="http://www.w3.org/2000/svg">
  <defs
     id="defs3" />
  <sodipodi:namedview
     id="namedview3"
     pagecolor="#ffffff"
     bordercolor="#000000"
     borderopacity="0.25"
     inkscape:showpageshadow="2"
     inkscape:pageopacity="0.0"
     inkscape:pagecheckerboard="0"
     inkscape:deskcolor="#d1d1d1"
     inkscape:zoom="51.3125"
     inkscape:cx="7.9902558"
     inkscape:cy="7.9805116"
     inkscape:window-width="1920"
     inkscape:window-height="1017"
     inkscape:window-x="1912"
     inkscape:window-y="-7"
     inkscape:window-maximized="1"
     inkscape:current-layer="svg3" />
  <path
     d="M12.9498 3.05025C15.6835 5.78392 15.6835 10.2161 12.9498 12.9497C10.2162 15.6834 5.784 15.6834 3.05033 12.9497C0.316663 10.2161 0.316663 5.78392 3.05033 3.05025C5.784 0.316582 10.2162 0.316583 12.9498 3.05025Z"
     fill="#FFF7F7"
     id="path1"
     style="fill:#2f2936;fill-opacity:1" />
  <path
     fill-rule="evenodd"
     clip-rule="evenodd"
     d="M14.9144 6.90481L13.9266 7.06045C13.736 5.85124 13.1756 4.69027 12.2427 3.75736C11.3098 2.82445 10.1488 2.26404 8.93963 2.07352L9.09527 1.0857C10.5063 1.30802 11.8624 1.96287 12.9498 3.05025C14.0372 4.13763 14.6921 5.49375 14.9144 6.90481ZM6.90489 1.0857L7.06053 2.07352C5.85132 2.26404 4.69035 2.82445 3.75744 3.75736C2.82453 4.69027 2.26412 5.85124 2.0736 7.06045L1.08579 6.90481C1.30811 5.49375 1.96295 4.13763 3.05033 3.05025C4.13771 1.96287 5.49383 1.30802 6.90489 1.0857ZM1.08579 9.09519C1.30811 10.5063 1.96295 11.8624 3.05033 12.9497C4.13771 14.0371 5.49383 14.692 6.90489 14.9143L7.06053 13.9265C5.85132 13.736 4.69035 13.1755 3.75744 12.2426C2.82453 11.3097 2.26412 10.1488 2.0736 8.93955L1.08579 9.09519ZM9.09527 14.9143L8.93963 13.9265C10.1488 13.736 11.3098 13.1755 12.2427 12.2426C13.1756 11.3097 13.736 10.1488 13.9266 8.93955L14.9144 9.09519C14.6921 10.5063 14.0372 11.8624 12.9498 12.9497C11.8624 14.0371 10.5063 14.692 9.09527 14.9143Z"
     fill="#DB3B4B"
     id="path2"
     style="fill:#b589ec;fill-opacity:1" />
  <path
     d="m 8.0965804,11.194998 c -0.4454045,0 -0.818556,-0.100273 -1.119505,-0.30075 C 6.6761265,10.693771 6.4494172,10.393021 6.2969307,9.9919992 6.1444527,9.590977 6.0682095,9.0897499 6.0682095,8.48825 V 4.2874543 h 1.1315682 v 4.1959448 c 0,0.4203985 0.032107,0.7712778 0.096304,1.0526248 0.068204,0.27809 0.1685482,0.4867081 0.3009658,0.6257191 0.1324175,0.139079 0.2989286,0.208618 0.4995332,0.208618 0.1966481,0 0.3592026,-0.06954 0.4875795,-0.208618 C 8.7165774,10.022732 8.8149014,9.8141139 8.8790478,9.5360239 8.947319,9.2546769 8.9814125,8.9037976 8.9814125,8.4833991 V 4.2874543 H 10.11298 V 8.48825 c 0,0.6014999 -0.07627,1.102727 -0.2287209,1.5037492 -0.1524528,0.4010218 -0.3792374,0.7017718 -0.6801864,0.9022488 -0.2969083,0.200477 -0.6660443,0.30075 -1.1074923,0.30075 z"
     fill="#5fb865"
     id="path2-7"
     style="stroke-width:0.755722;fill:#b589ec;fill-opacity:1" />
</svg>
